/* XPM */
static char *_bb80e56ab594a95cfe42a55ff7be5f8Zfqz7KGNT5SrLI5Y[] = {
/* columns rows colors chars-per-pixel */
"48 48 241 2 ",
"   c #030815",
".  c #040C1C",
"X  c #06141E",
"o  c #321D17",
"O  c #2F221F",
"+  c #3A241C",
"@  c #060E24",
"#  c #051324",
"$  c #081524",
"%  c #061B24",
"&  c #081C27",
"*  c #05142C",
"=  c #08142C",
"-  c #061A2C",
";  c #181D2E",
":  c #061435",
">  c #081734",
",  c #061A33",
"<  c #091B35",
"1  c #06163B",
"2  c #061B3C",
"3  c #0A1C3B",
"4  c #072224",
"5  c #08232B",
"6  c #0B2334",
"7  c #0B2935",
"8  c #0B243D",
"9  c #0C2A3C",
"0  c #162A3A",
"q  c #13303D",
"w  c #372925",
"e  c #3C2A24",
"r  c #38363A",
"t  c #452A1E",
"y  c #572C16",
"u  c #61361E",
"i  c #482E28",
"p  c #522C21",
"a  c #443029",
"s  c #493529",
"d  c #593926",
"f  c #4B3C36",
"g  c #573E34",
"h  c #673C28",
"j  c #574236",
"k  c #594339",
"l  c #69422B",
"z  c #72442D",
"x  c #79492C",
"c  c #634534",
"v  c #6C4632",
"b  c #6C4A34",
"n  c #674939",
"m  c #744A33",
"M  c #7B4D34",
"N  c #754C3B",
"B  c #66503F",
"V  c #75523C",
"C  c #7D533B",
"Z  c #7A5439",
"A  c #071C43",
"S  c #091E46",
"D  c #071D4B",
"F  c #071E53",
"G  c #081F50",
"H  c #0B2443",
"J  c #0C2A44",
"K  c #07204A",
"L  c #0B244A",
"P  c #0D2B4B",
"I  c #122C44",
"U  c #1A2A45",
"Y  c #122C4C",
"T  c #0E3145",
"R  c #0F334E",
"E  c #173446",
"W  c #13344C",
"Q  c #1B334D",
"!  c #072053",
"~  c #082255",
"^  c #0E2C54",
"/  c #072159",
"(  c #08235C",
")  c #0F2E5B",
"_  c #122C54",
"`  c #132F58",
"'  c #0F3254",
"]  c #0F3857",
"[  c #0F335B",
"{  c #123353",
"}  c #193857",
"|  c #11335D",
" . c #123B5C",
".. c #253748",
"X. c #393C42",
"o. c #2E3652",
"O. c #243A56",
"+. c #082663",
"@. c #0F2F61",
"#. c #092769",
"$. c #09296C",
"%. c #0F3263",
"&. c #113464",
"*. c #123B64",
"=. c #1C3C64",
"-. c #11356C",
";. c #123B6C",
":. c #1A3D6A",
">. c #092B73",
",. c #0A2E7C",
"<. c #0E377B",
"1. c #133B73",
"2. c #193E75",
"3. c #133D7B",
"4. c #25414F",
"5. c #2B4559",
"6. c #364259",
"7. c #1A4267",
"8. c #14416C",
"9. c #144374",
"0. c #14437C",
"q. c #1A477A",
"w. c #26446A",
"e. c #364867",
"r. c #264A79",
"t. c #364C73",
"y. c #3B5172",
"u. c #484649",
"i. c #564B46",
"p. c #464C57",
"a. c #4E5359",
"s. c #575453",
"d. c #7F4F40",
"f. c #6A574A",
"g. c #725341",
"h. c #7B5642",
"j. c #785B49",
"k. c #655D58",
"l. c #7E624F",
"z. c #6B625E",
"x. c #7A685C",
"c. c #485069",
"v. c #465577",
"b. c #5B6062",
"n. c #656666",
"m. c #78706E",
"M. c #854E32",
"N. c #84543A",
"B. c #885739",
"V. c #925B3D",
"C. c #95613C",
"Z. c #825B43",
"A. c #8A5E44",
"S. c #905D47",
"D. c #8D6346",
"F. c #85634C",
"G. c #8A634A",
"H. c #936345",
"J. c #94664B",
"K. c #996848",
"L. c #9B6C4C",
"P. c #886B56",
"I. c #946C52",
"U. c #906F5C",
"Y. c #987459",
"T. c #A26E48",
"R. c #A9734C",
"E. c #A77756",
"W. c #B17E58",
"Q. c #977963",
"!. c #A97F61",
"~. c #AD815F",
"^. c #B3835D",
"/. c #938375",
"(. c #A88467",
"). c #B88B67",
"_. c #A98C73",
"`. c #B69274",
"'. c #C59469",
"]. c #C89C76",
"[. c #D2A579",
"{. c #143F81",
"}. c #154383",
"|. c #164985",
" X c #194C84",
".X c #15458B",
"XX c #164B8B",
"oX c #194D8B",
"OX c #1B528A",
"+X c #184C96",
"@X c #1B5493",
"#X c #1A549B",
"$X c #1C5798",
"%X c #2A4D84",
"&X c #29558B",
"*X c #385687",
"=X c #275997",
"-X c #385C98",
";X c #3C639A",
":X c #174EA1",
">X c #1A52A4",
",X c #1E5DA4",
"<X c #1A54AC",
"1X c #1D5CAC",
"2X c #1D5BB3",
"3X c #1B58B7",
"4X c #265CA4",
"5X c #365FA3",
"6X c #1F61B3",
"7X c #2665A9",
"8X c #3867AA",
"9X c #2268B7",
"0X c #356BB4",
"qX c #3B70B8",
"wX c #4B5A84",
"eX c #435E92",
"rX c #53688C",
"tX c #586A98",
"yX c #616C9F",
"uX c #4769A6",
"iX c #5B6DA4",
"pX c #5B73A9",
"aX c #476CB4",
"sX c #4772B8",
"dX c #5976B6",
"fX c #6678A7",
"gX c #6379B5",
"hX c #1B5BC2",
"jX c #236DCA",
"kX c #337AD5",
"lX c #4F78C7",
"zX c #7485BE",
"xX c #5983D7",
"cX c #6285D1",
"vX c #5588E2",
"bX c #6490E7",
"nX c #878380",
"mX c #B89B82",
"MX c #CFAD92",
"NX c #E4BB93",
"BX c #9EAEF6",
/* pixels */
",.,.,.>.#.$.>.>.>.,.,.>.,.>.$.>.+.+.$.>.,.,.>.#.( +.! ! #.>.+.! / / ( ( / / / D D D S ! / ( G 2 ",
"( +.+.A , , K ! ( +./ ( +.! D K S D S ~ >.>.( D A K S D ( ( ( / D 2 1 , , 2 A 2 S S ! / G D : # ",
"D / A 2 K H A A ! G D / ! ! / / ( ( D / ( +.G G / / ! D ! D ! ! D ~ ! A S S D D / D S 2 1 A , * ",
"@ * > , 2 < 3 8 D 1 : A 1 A A G $.+.+.( 1 A A ! / / / ! A : : : : D / D A A / $.$.~ 2 * * - , % ",
"1 1 1 2 H P | 1.) H L ^ ;.) ^ -..X{.;.@.L ^ ^ -.;.;.-.3.1.}.1.&.| &.}.;.;.P P -.&.;.^ P , - # % ",
"1 : : A ^ .XXX+X|.3.}.|.}.1.;.|.@X0.*.[ ^ | -.;.;.|..X+X:X}.|.|.9.1.9.;.] J H P R P ^ H % # # * ",
"/ D F #.3 }.>X:X+X|.|.5X@X XOX9.9.9.*.| *.*.;.;.*.1..X+X.X;.1.;.;.&.;.8. .' { J J P P H * # # * ",
">.$.$.>.> .X>X>X#X%X&.:.oXXXq.;.8.q.;.9.&.;.9.|.0.0.|..X|.1.;.[ ^ P |  .7.| { { { } ;.| 3 * . # ",
",.,.>.>.> 0.2XlX&Xq.=.} *.oXq.1.$XoX8.*.` *.9.1X,X0.|.}.oX@X1.P P =.=.| =.&.| &.q.*.8.;.! 2 # X ",
",.,.,.>.= 3.xXBXcXzXq.:.;.q.q.oX9X>X X X9.oX#X9X6XjX9X#X=X@XoX0.|.oXq.r.q.;.r.| { { [ [ S D : # ",
"#.#.>.>.3 }.#XgX,X0XdXeX&XoX9.|.@XOX&X1X7X$X,X0X9XkXkXr.-X8X0XsX9X1X$X=Xq.} Q I Y Q ' ' , * * # ",
"$.>.>.>.= 1.|.$X>X9XuX&XrX=X X XOX7X8XuXqX7X,X-X-XvXbXsX0XqX0X7X7X7X8X*X .Y 0 I { =.*.*.8 , * * ",
">.>.#.$.> | 9.0.|. X9.*.} r.OX@X$X=X;XuX8X8X5X&X*XsXlXlXaXsXaX;X=X&X7.} 0 6 6 9 8 I { { L A 2 A ",
">.+./ ~ 3 { 9.9.9.9.' P W w.&X$X=X$X&X-X*Xv.e.6.p.v.v.tXuXeXeX*Xw.w.Q I 9 7 6 6 H 8 P R H K A D ",
"$./ A S L ;.oX-.&.r.*.| | 9.=X,X8XrXs.X.s.Q.P.Q.(.Q.U.(.z.r s.n.a.o.E E I q 7 9 J P P | ! ! ! D ",
"( D / ( H -.-.&.-.|.|.0.1.0. X@XrXn.x.g.g.l.j.U.(.(.P._.mX_./.n.m.c.U Q I q 8 U 9 T R ;.L , , 2 ",
"#.+.$.>.= -.}..X+X+X=X#XoXoX=XwXn.n.f.M h.j.j.l.U.h.b _.MXMX/.n.n.p...O.} I Y Q I W | *.K , - , ",
">.>.,.,.3 .X<X>X<X2X2X2X<X#X&Xi.k k g g c k j f k f a i.k.f.x.m.z.u.X.=.I Y Y :.W J J J < , - - ",
"#.+.+.( < [ 9.7.|.>X<X>XXX Xj.b Z.Y.Y.(.I.V P.F.m v g.k e t I.`.G.Q.P.u.Y _ ) -.-.) ^ 8 - , - % ",
"#./ +.+.> [ 0.9.9.|.XX0.9.5.L.B.E.[.].].[.W.).].K.N.C J.Y.Y.].NX).].MXi...| ` ^ ) ^ P J & % % % ",
"D A D D H &.XX+X}.|..X:.o.g M B.H.).'.'.].).^.].Y.Z.d b Y.`.MXNX].(.mXx.u.w.2.&._ J H 6 % 4 % % ",
"D 1 A A 3 %.3.1.&.-.0.O.r d l N j.j.F.F.V Z.W.L.K.J.v i i j.Q.Y.Q.j.Y.(.s.o.1.) H 6 6 - % 4 % % ",
"#.G +.$.A }.>X+X.X0. ...k c C d.g.s a i a n J.N.H.H.N.V V j.h.N G.I.(.(.f.r ` H 5 % $ # . % X 4 ",
"/ ( +.>.3 1..X3.%.;.9.e.L.V.M.N.M l m B.V.K.T.E.K.K.H.C.K.R.K.M.M N.B.E.).f.Q ^ 6 $ @ @ . # X % ",
"@ D $.( > &.J - % & 6 a.W.M.h M.N h x M B.R.R.C.x S.K.B.M.V.S.z p d d G.H.i.5..X{.^ $ X X # - # ",
". - ( $.> 1.[ J 9 9 I p.L.J.y y h g b A.A.N.M z y M C J.V.x H.I.G.F.V h.Z i.6.XXXX[ 5 % X % - , ",
"D 1 A D 3 ) *.;.OX,XoXe.e e O O O O e a a a + O o t + e e + e e a w w w w r 6.9.&.P J 9 , , , 3 ",
">.( D : @ A ` 1.1X9X#Xy.F.n s s n b b j.j.l.U.Q.j.d d d j V c + w e c n N t ; _ L P [ &.S D , * ",
",.,.>.( 3 3.:X<X3XXX#X*XE.H.v d M H.E.~.~.).`.`.Y.Z.D.D.D.E.R.Z Z D.W.W.R.p U =.0.-.-.&.S D 1 * ",
",.,.,.,.= -.<X3X4X<X3X*Xm Z.N.Z.H.A.L.W.L.L.E.I.G.Z M J.R.E.E.K.W.W.R.T.V.i e.-X4X3.;.%.A 2 , , ",
">.#.>.,.A &.}. Xw.XX2X8Xp.n H.I.E.H.A.J.A.D.A.G.C m d D.^.E.L.Y.(.!.I.L.d r rXaX-X X;.P - , , - ",
"+.1 A $.H 1.0.W E R 9.OX&Xi h.h.V C V V h.Z.C A.M m n G.(.Y.F.l.F.P.Q.U.a 6.dXeX-X:.;.^ 1 D K A ",
">.2 * 2 H }.#X7.W T ] 9.q.o s b u d h h v m N.J.M z M L.(.Y.g.c d b h.f.p.wXiXv.e...Y L : G +.G ",
"$.D * . X > -.1.8.8. X+X@X; + d l h u d n C N.H.V.x x H.L.Z d d b B.m rXtXfXyXwXt.*X%X%X@.$.>.$.",
"F +./ 1 . @ 8 &.1.&.1.&.^ I c V Z z M C m v h B.!.m y l l l b b Y.).m.fXzXtXv.e.c.pXxXkX#X<.,.>.",
"D +.>.+.= ) {.#X|.&.| _ 8 6 0 e + c V V b v l z B.u + i c h.Z.F.I.m.fXfXtXe.O.O.6.pXbXkX+X<.$.( ",
">.>.,.,.= .X>Xq.8.| Y  .' 8 9 0 g c k n n j j n b c c F.Y.I.Z c B rXv.5.4.E ....6.gXcX8X1.^ H A ",
",.,.,.>.= 3.+X .R ^ ^ { P J ^ J ..X.f n f.k.k.z.z.z.n.m.U.D.B c.v.......6.v.y.4.e.tXdX&X*.L 8 A ",
",.,.$.D = -.3.;.%.[ &.H 3 Q L H J J ..n.nXb.Q } } w.*Xc./.m.v.o.U 0 0 ..v.fXtXy.e.y.t.w.*.^ H 2 ",
",.,.+.* # 1..X2.3.1.1.` L Q 6 6 P Q W W 5.O.P } 5.7.&XuX*Xe.e.e.v.wX6...c.iXiXO.Q ..Q 7.*.H H A ",
",.,.>.( 3 {.3X<X<X>X<XXX) J 0 6 8 P J { } } { } R 7.$X9X8X5XaXlXlXlXuXt.e.t.t.q E } W  .P H H H ",
",.,.,.,.= 3.<X<X>X}.3.}.}.[ J 9 &.}.) J 9 7 9  .9.@X2X6XjXjX9X9XjXqXr.I I } q 7 q W R ' 8 < , 2 ",
",.,.,.,.> +XhX3X>X&.^ &.[ 9 7 J 0.1.P 9 5 5 7 *. .8.|.XXXXXX9.9.XXq.] 5 5 7 5 7 T R [ | H 1 1 2 ",
",.,.,.,.= &.}..X3.) L ) &.H 9 H ^ 3 $ 6 H P &.1.' ^ [ [ [ 0.P H P ;.^ $ < H 8 6 J [ ^ ) , 2 ~ / ",
",.,.,.,.,.,.,.,./ @ @ 1 +.$.D : .     1 : A / / / ( ~ / ( D : @ : 1 @ . * A G D 2 S S A * D >.>.",
",.,.,.,.,.,.,.,.+.* @ D >.,.+.A A * A +.: 1 D 1 D +.+.+.#.#.+./ +.+.G @ 1 / +.+.G / ~ ! 1 / >.,.",
",.,.,.,.,.,.,.,.,.#./ $.,.,.>.>.>.>.,.>.>.,.>.>.>.,.,.,.,.,.,.,.,.,.>.+./ ( #.>./ +.>.>.( #.,.,.",
",.,.,.,.,.,.,.,.,.,.,.,.,.,.,.,.,.,.,.,.,.,.,.,.,.,.,.,.,.,.,.,.,.,.,.,.>.>.$.>.>.>.,.,.,.,.,.,."
};
