/* XPM */
static char *_dd70cdf34f24ca0928aad6730ade1c603ofQZeKGLof5C1z[] = {
/* columns rows colors chars-per-pixel */
"48 48 230 2 ",
"   c #030815",
".  c #040C1C",
"X  c #06121D",
"o  c #07171E",
"O  c #050E25",
"+  c #080F21",
"@  c #050F2B",
"#  c #061324",
"$  c #081525",
"%  c #061B24",
"&  c #081A25",
"*  c #05142C",
"=  c #08142C",
"-  c #061A2C",
";  c #091C2B",
":  c #061435",
">  c #081734",
",  c #061A33",
"<  c #0A1B35",
"1  c #06163B",
"2  c #061B3C",
"3  c #0A1C3B",
"4  c #072224",
"5  c #09232C",
"6  c #0A2233",
"7  c #0B2934",
"8  c #0B243D",
"9  c #0B2B3B",
"0  c #15283A",
"q  c #0E313E",
"w  c #13313C",
"e  c #071C43",
"r  c #0A1F42",
"t  c #071D4B",
"y  c #081D4B",
"u  c #071E53",
"i  c #081F50",
"p  c #072046",
"a  c #0B2443",
"s  c #0C2B44",
"d  c #07204B",
"f  c #0B244B",
"g  c #0D2B4B",
"h  c #132D44",
"j  c #1A2D43",
"k  c #142C4E",
"l  c #0C3144",
"z  c #0E334D",
"x  c #113344",
"c  c #14334C",
"v  c #1A334D",
"b  c #183849",
"n  c #1D3A4C",
"m  c #072053",
"M  c #082255",
"N  c #0E2C54",
"B  c #072159",
"V  c #08235C",
"C  c #0F2D5B",
"Z  c #122E54",
"A  c #0E3253",
"S  c #0F3855",
"D  c #0F335B",
"F  c #123354",
"G  c #1D3553",
"H  c #183A57",
"J  c #10335D",
"K  c #123B5D",
"L  c #273349",
"P  c #233B4C",
"I  c #253A55",
"U  c #082663",
"Y  c #0F2F61",
"T  c #092769",
"R  c #09296C",
"E  c #102F61",
"W  c #0F3362",
"Q  c #0D3068",
"!  c #113464",
"~  c #1A3661",
"^  c #113B65",
"/  c #1C3B65",
"(  c #11366C",
")  c #123B6C",
"_  c #1B3E6B",
"`  c #092B73",
"'  c #0A2E7C",
"]  c #0E377B",
"[  c #133B74",
"{  c #133D7B",
"}  c #253D66",
"|  c #363F60",
" . c #24414F",
".. c #284458",
"X. c #32455D",
"o. c #184265",
"O. c #14426C",
"+. c #134374",
"@. c #1A4574",
"#. c #14437B",
"$. c #1B457D",
"%. c #164A7D",
"&. c #1D4C7D",
"*. c #284368",
"=. c #354865",
"-. c #34446B",
";. c #3A4C6D",
":. c #37536C",
">. c #254979",
",. c #334B75",
"<. c #23507E",
"1. c #3B5472",
"2. c #3B5877",
"3. c #424D74",
"4. c #445576",
"5. c #43527C",
"6. c #143F81",
"7. c #154383",
"8. c #174B84",
"9. c #1A4C84",
"0. c #15458B",
"q. c #164B8B",
"w. c #194D8A",
"e. c #1A5085",
"r. c #1A538B",
"t. c #184C92",
"y. c #184B95",
"u. c #174B9A",
"i. c #1A5394",
"p. c #1E5995",
"a. c #1A549B",
"s. c #1B579B",
"d. c #284D84",
"f. c #28558A",
"g. c #395386",
"h. c #295997",
"j. c #365C97",
"k. c #2F619A",
"l. c #3C629C",
"z. c #174EA1",
"x. c #1953A4",
"c. c #1D5BA4",
"v. c #1A54AC",
"b. c #1D5CAB",
"n. c #1A56B3",
"m. c #1D5CB4",
"M. c #1B5BBB",
"N. c #285EA5",
"B. c #355FA3",
"V. c #1F62AA",
"C. c #1E61B8",
"Z. c #2864A9",
"A. c #3765A9",
"S. c #3D65AA",
"D. c #2265B3",
"F. c #2468B7",
"G. c #356BB4",
"H. c #3B70B9",
"J. c #485A89",
"K. c #505D89",
"L. c #435C92",
"P. c #495E94",
"I. c #496389",
"U. c #51678C",
"Y. c #486598",
"T. c #4A649D",
"R. c #556995",
"E. c #5B719B",
"W. c #616C9F",
"Q. c #4565A3",
"!. c #476AA8",
"~. c #576DA6",
"^. c #4C73AE",
"/. c #5C75A7",
"(. c #436BB2",
"). c #496CB4",
"_. c #516DB1",
"`. c #4671B8",
"'. c #5372B5",
"]. c #5B7AB8",
"[. c #6378A5",
"{. c #6379B3",
"}. c #627CBE",
"|. c #1B5CC1",
" X c #1F63C4",
".X c #246BC2",
"XX c #226BCC",
"oX c #3E6FC1",
"OX c #2572CB",
"+X c #3573C7",
"@X c #287AD7",
"#X c #3A7DD8",
"$X c #297FE5",
"%X c #4A74C3",
"&X c #4777C8",
"*X c #5679C6",
"=X c #547DCD",
"-X c #547FD1",
";X c #617DC1",
":X c #6681AF",
">X c #6781B8",
",X c #7386BC",
"<X c #5C81CC",
"1X c #5582D7",
"2X c #5A82D4",
"3X c #5986DC",
"4X c #6483CA",
"5X c #738DCB",
"6X c #6285D3",
"7X c #648AD8",
"8X c #738ED7",
"9X c #6F91DB",
"0X c #7693D8",
"qX c #4B84E2",
"wX c #5989E3",
"eX c #648DE4",
"rX c #6890E6",
"tX c #7797E9",
"yX c #6D99F8",
"uX c #7A9CF6",
"iX c #7DA1FC",
"pX c #849CE5",
"aX c #8EA3EA",
"sX c #85A3F7",
"dX c #86A6FF",
"fX c #8CABFF",
"gX c #97AEFC",
"hX c #95B1FF",
"jX c #9CB5FF",
"kX c #A5BBFF",
/* pixels */
"' ' ' ` T R ` ` ` ' ' ` ' ` R ` U U R ` ' ' ` T V U m m T ` U m B B V V B B B t t t e m B V i 2 ",
"V U U e , , d m V U B V U m t d e t e M ` ` V t e d e t V V V B t 2 1 , , 2 e 2 e e m B u t : # ",
"t B e 2 p p e e m m i B m m B B V V t B V V i i B B m t m t m m t M m e e e t t B t e 2 1 e , * ",
"@ * > , 2 < 3 8 t 1 : e 1 e e i R U U V 1 e e m B B B m e : : : : t B y e e M R R M 2 * * - , $ ",
"1 1 1 2 a g J [ C a f N ) C N ( 0.6.) Y f N N ( ) ) ( { [ 7.[ ! J ! 7.) ) g N ) ! ) N g , - # $ ",
"1 : : e N 0.t.t.7.{ 7.7.7.[ ) 7.i.#.^ D N J ( ) ) 7.0.u.z.7.7.7.+.[ +.) J s s g z g N a $ # # * ",
"B y u T 3 7.x.x.y.7.8.N.i.e.r.+.+.#.^ J ( ) [ [ ^ #.t.u.0.) [ ) ) ! ) O.^ A S s s g g a * # # * ",
"` R R ` > 0.v.x.s.d.! _ w.w.%.) O.&.O.+.! ) #.q.#.#.7.0.7.[ ) D N g J K o.J F A A ! ) J 3 - . # ",
"' ' ` ` > #.m.&Xf.@./ H ^ w.@.[ s.w.O.^ N ! #.b.c.#.7.7.w.i.[ g g / / F / ! F ! #.^ O.) m 2 # X ",
"' ' ' ` = { 2XgX4X,X&._ ) $.$.q.F.c.w.8.+.w.s.F.C..XD.s.h.i.w.#.7.w.$.>.$.) >.F N A D A e t : # ",
"T T ` ` 3 7.s.{.c.G.].L.f.w.+.w.s.i.f.V.D.s.c.G.F.@X+X>.j.S.G.`.D.b.s.h.9.J k s g A A A , * * # ",
"R ` ` ` = [ 8.s.x.D.^.j.Y.h.e.e.r.Z.S.!.H.Z.V.j.B.qXrX`.G.H.H.Z.D.Z.S.g.K h 6 a A ) ^ ^ 8 , * * ",
"` ` T R > J +.#.8.8.#.^ H <.r.p.p.h.l.Q.S.S.B.f.g.`.=X=X`.`.^.l.h.f.@.H 9 7 6 8 8 g F F f e 2 e ",
"` U B M 3 F +.+.+.+.A g c >.f.p.h.p.f.j.l.(.(.j.g._.'.'._.Q.T.g.*.*.c h 9 7 6 6 a 8 g z a p e t ",
"R B e e f ) w.( ! >.^ D J @.h.c.A.Z.Z.).`.&X=X`._.].*X_._.!.L.,.I G v x s 9 6 9 s g z J m m m t ",
"V t B V p ( ( E ( 7.7.7.[ #.9.i.c.G.OX&X1X3X1X3X6X4X6X_.Y.J.-.*.v h j v h 7 8 8 9 g z ) f , , 2 ",
"T U R ` = ( 7.0.u.u.x.z.t.q.j.Q.b.F.F.#XwXwXwXeX7X4X;XY.J.J.,.,.*.v j G G h g N s z D ^ p , - , ",
"` ` ' ' 3 0.v.x.v.M.M.M.v.x.D.D.c.s.Z.&X-X&XwX2X].}.4X!.L.P.L.P.I h / / h g f _ z s s s < , - - ",
"T U U V < D +.+.7.x.v.x.w.w.i.w.+.O.f.A.Q.(.=X4X^.<XtX7X4X*X'.6XT.>.j.d.k Z C ( ( C N 8 - , - $ ",
"T B U U > D #.+.+.w.q.#.+.O.d.9.@.O.&.j.Q.(.%X=X2X7XuXrXtX}.L.'.'.k.d.<.Z ! C N C N g s ; % % % ",
"t e y y a ! q.u.7.7.q.[ } Z #.w.#.8.A.S.Q.).=XeXiXuXdXyXuX}.Q.2XtX`.h.c.w.0.{ Y N g a 6 % 4 % % ",
"y 1 e e 3 W { [ ! ) #.) z F _ w.c.F..XoXS.(.%X<XuXdXdXiXtX~.J.*XyXqXoXF.i.7.[ C a 6 6 ; % 4 % % ",
"T u U R r 7.x.y.0.#.K z 7 9 z O.s.D.N.%XS.j.*X*XuXfXfXhXtX{.T.6XwX1X&XZ.9.) C a 5 % $ # . $ o 4 ",
"B V U ` 3 [ 0.{ W ) #.+.+.+.^ ^ ) 7.h.(.`.(.=X7XuXjXfXhXfXuXsXtX3X3X`.h._ k ( N 6 $ + + . # o % ",
"O t R V > ! s ; & & 6 J q.b.c.q.7.7.s.B.&X-XrXrXrXhXdXfXjXtX].].'.<X2Xd.6 < [ 0.6.N $ X X # - # ",
". - V R > [ D s 9 9 s K t.v.x.s.c.c.x.F.+X&X1XeX6X9X4X}.tX8XY.>X7X*X2Xj.j c +.q.q.D 5 & o % - , ",
"t 1 e y 3 C ! ) r.c.y.b.OXC.m.b.c.b.c.D.F.+X+XwX3X].J.I./.0X4X8X0XtX6XT.*.c o.+.! g s 9 , , , 3 ",
"` V y : + r C [ b.F.s.x.@X Xm.v.m.F.D.D.b.D.N.S.%XT.;.~.0XhXfXpXR.K.P.J.,.v 0 Z f g D ! e t , * ",
"' ' ` V 3 { z.n.M.q.i.M.XXXX Xv.b.c.f.9.9.$.&.>.S.Y.~.tXjXjXhXpXJ.-.-.-.J.} v ~ #.( ( ! e t 1 * ",
"' ' ' ' = ( v.|.M.v.M. XXX$X.Xm.D.s.h.r.%.+.O.&.S.*X9XdXjXhXkXgX5X{.K.R./.Y.2.j.N.{ ) W e 2 , , ",
"` T ` ' r ! 7.q.+.q.m.@XXXC.i.7.u.y.%.o.K l q S f.!.].5X0X5X{.E.>XaX5X/.I.Y.~.).j.w.) g - , , - ",
"U 1 e R a [ 7.z 9 z +.r.c.r.7.8.9.[ A z S z l z b ..2./.:XR.I.R.,XpX,X,XI.U.{.L.j._ ) N 1 t d e ",
"R 2 * 2 p 7.s.O.z l S +.8.O.A g 9 6 & 5 g z 9 9 q b  .X.1.:.1.:.;.U.R.R.:.I.~.5.-.v k g : i U i ",
"R y * . X > ( { +.O.w.u.i.O.z 8 6 6 5 ; ; 5 7 q x w w n :.2.1.4.=.K.[.:X[.[.W.K.;.g.d.d.Q R ` R ",
"u U B 1 . + 3 ! [ ! [ ! N s 9 8 8 6 $ & ; ; 9 s 9 7 7 w  ...;.=.X.[.,X,X,XR.5.=.5.].1X#Xs.] ' ` ",
"t U ` U = C 7.x.q.! ! F 8 6 ; 6 6 ; $ ; ; ; ; 8 h w j P X.3.4.1.X.E.[./.E.=.P I =.'.wX#Xi.] R V ",
"` ` ' ' = 0.x.%.O.J A K A 8 9 7 7 6 6 6 $ & $ < j j I ;.5.R.R.E.U.U.4.X. .b P P =.}.7XA.) N a e ",
"' ' ' ` = { y.K z N N F g s A s s g s 9 6 6 8 k G G G -.;.K.K.R.4.P L P X.4.:. .=.~.'.f.^ f 8 r ",
"' ' R y = ( { ) W D ! a 3 g f a s s s 9 s s g K K >.g.g.2.P.5.| L 0 0 L 5.[./.;.=.1.,.*.^ N a 2 ",
"' ' U * # [ 0.6.6.[ [ N f g 6 8 g c g s N N g S K o.f.Q.g.-.-.-.5.J.| L 3.~.~.P n n b o.^ a p e ",
"' ' ` V 3 6.M.n.n.v.v.y.C s 9 < 8 g s A ! D A K z O.i.F.A.B.(.%X&X=X!.,.,.g.,.q x H c H g a p p ",
"' ' ' ' = { |.M.v.0.{ 7.7.A s 8 ! 7.C g 9 7 9 K +.s.m.C.XXXXXXOX@X+X<.x h H h 7 l c z S 8 < , e ",
"' ' ' ' > u.|.M.x.! N ! D 9 7 s #.[ g 9 5 5 7 ^ K O.8.q.q.q.#.+.w.%.S 5 5 7 5 7 l z D ! a 1 1 2 ",
"' ' ' ' = ! 7.0.{ C f C ! a 9 a N 3 $ 6 a g ! [ A N D A D #.g a g ) N $ < a 8 6 s A N C , 2 M B ",
"' ' ' ' ' ' ' ' B O O 1 U R t : .     1 : e B B B V M B V t : O : 1 O . * e i t 2 e e e * t ` ` ",
"' ' ' ' ' ' ' ' U * O t ` ' U e e * e U : 1 t 1 t U U U T T U B U V u @ 1 B U U u B M m 1 B ` ' ",
"' ' ' ' ' ' ' ' ' T B R ' ' ` ` ` ` ' ` ` ' ` ` ` ' ' ' ' ' ' ' ' ' ` U B V T ` B U ` ` V T ' ' ",
"' ' ' ' ' ' ' ' ' ' ' ' ' ' ' ' ' ' ' ' ' ' ' ' ' ' ' ' ' ' ' ' ' ' ' ' ` ` R ` ` ` ' ' ' ' ' ' "
};
