/* XPM */
static char *_23ea5ef8aec4f2ad6008b2a038bcc02x070w2USzsmsJFDe[] = {
/* columns rows colors chars-per-pixel */
"48 48 247 2 ",
"   c #020203",
".  c #0B0303",
"X  c #04060A",
"o  c #0B060A",
"O  c #04090E",
"+  c #09090C",
"@  c #130504",
"#  c #1C0303",
"$  c #140609",
"%  c #16080C",
"&  c #050B13",
"*  c #0A0D15",
"=  c #040D1B",
"-  c #170C13",
";  c #05121D",
":  c #08141B",
">  c #151319",
",  c #260708",
"<  c #360805",
"1  c #3A1109",
"2  c #2E0B12",
"3  c #2A181E",
"4  c #3A161C",
"5  c #060E24",
"6  c #061424",
"7  c #0A1424",
"8  c #061B25",
"9  c #081A22",
"0  c #05142B",
"q  c #08142C",
"w  c #061A2C",
"e  c #091B2C",
"r  c #131A27",
"t  c #061435",
"y  c #081734",
"u  c #061A33",
"i  c #091B34",
"p  c #06163B",
"a  c #061B3C",
"s  c #0A1D3B",
"d  c #311825",
"f  c #072224",
"g  c #09232B",
"h  c #0B2234",
"j  c #0A2934",
"k  c #0A243D",
"l  c #0B2A3C",
"z  c #102934",
"x  c #192738",
"c  c #272829",
"v  c #372839",
"b  c #480808",
"n  c #56060A",
"m  c #46130A",
"M  c #55150C",
"N  c #480A14",
"B  c #451116",
"V  c #5D1A18",
"C  c #670609",
"Z  c #7B0A08",
"A  c #69180A",
"S  c #7B160A",
"D  c #6A0A14",
"F  c #790C19",
"G  c #681A17",
"H  c #781A16",
"J  c #5F211F",
"K  c #7D220C",
"L  c #6B2218",
"P  c #792315",
"I  c #471823",
"U  c #4C1E2F",
"Y  c #681825",
"T  c #771427",
"R  c #4A252F",
"E  c #782931",
"W  c #071C43",
"Q  c #091E46",
"!  c #071D4B",
"~  c #071E53",
"^  c #081F50",
"/  c #0B2343",
"(  c #0C2B44",
")  c #07204A",
"_  c #0A234B",
"`  c #0D2B4B",
"'  c #142D49",
"]  c #0E334B",
"[  c #16364A",
"{  c #072053",
"}  c #082155",
"|  c #0E2C54",
" . c #072159",
".. c #08235C",
"X. c #0F2E5B",
"o. c #0E3354",
"O. c #0F3857",
"+. c #0F335B",
"@. c #183655",
"#. c #10335D",
"$. c #123A5C",
"%. c #27354A",
"&. c #243A4C",
"*. c #30334D",
"=. c #243851",
"-. c #082663",
";. c #0F2F61",
":. c #092769",
">. c #09296C",
",. c #0F3363",
"<. c #113463",
"1. c #113B64",
"2. c #11356C",
"3. c #123B6C",
"4. c #1B3E6A",
"5. c #092B73",
"6. c #0A2E7C",
"7. c #0F3472",
"8. c #133B73",
"9. c #193F70",
"0. c #133D7B",
"q. c #363F60",
"w. c #582E52",
"e. c #74334E",
"r. c #24414F",
"t. c #2A4457",
"y. c #31455C",
"u. c #194167",
"i. c #13426C",
"p. c #144374",
"a. c #14437C",
"s. c #1A487B",
"d. c #25446A",
"f. c #364968",
"g. c #37526B",
"h. c #244A78",
"j. c #374C76",
"k. c #23507E",
"l. c #3C5774",
"z. c #6E5B5B",
"x. c #4E4A6C",
"c. c #445479",
"v. c #870507",
"b. c #9C0404",
"n. c #99070B",
"m. c #9A130A",
"M. c #8A0D1A",
"N. c #8D1610",
"B. c #8A151A",
"V. c #A50807",
"C. c #A9130C",
"Z. c #B4150F",
"A. c #A40C11",
"S. c #A61616",
"D. c #B61B15",
"F. c #9B240D",
"G. c #8A2316",
"H. c #992617",
"J. c #A62919",
"K. c #B82917",
"L. c #B4301A",
"P. c #8C192D",
"I. c #AA172B",
"U. c #892929",
"Y. c #96332E",
"T. c #8D2536",
"R. c #AB2A2B",
"E. c #B92B2A",
"W. c #B83A26",
"Q. c #C62A19",
"!. c #D02B1B",
"~. c #C6371C",
"^. c #D8331E",
"/. c #C93226",
"(. c #C83C27",
"). c #E03C26",
"_. c #BE412C",
"`. c #D24430",
"'. c #E84826",
"]. c #EB4F39",
"[. c #92304B",
"{. c #A83250",
"}. c #923869",
"|. c #AF3E61",
" X c #C43D51",
".X c #B0434C",
"XX c #CF4751",
"oX c #E84A55",
"OX c #143F81",
"+X c #154383",
"@X c #174A84",
"#X c #194C85",
"$X c #15458B",
"%X c #164B8B",
"&X c #194D8A",
"*X c #1B5288",
"=X c #174B96",
"-X c #1A5495",
";X c #1B5698",
":X c #1A549A",
">X c #2B4D84",
",X c #27558C",
"<X c #395588",
"1X c #2A5998",
"2X c #385C94",
"3X c #2F6098",
"4X c #174EA1",
"5X c #1953A4",
"6X c #1C5BA7",
"7X c #1954AD",
"8X c #1C5AB8",
"9X c #2D5EA4",
"0X c #1F61B3",
"qX c #2363A7",
"wX c #3767AB",
"eX c #2268B7",
"rX c #336CB6",
"tX c #4C5C86",
"yX c #505D89",
"uX c #455D91",
"iX c #51688D",
"pX c #4E6893",
"aX c #5A6995",
"sX c #61718E",
"dX c #4669A8",
"fX c #4E6FAC",
"gX c #5A6EA3",
"hX c #5976B4",
"jX c #6378A5",
"kX c #6279B6",
"lX c #1B5BC1",
"zX c #236ECA",
"xX c #3077D0",
"cX c #4E78C9",
"vX c #6B85B5",
"bX c #7488BC",
"nX c #5983D7",
"mX c #6285D1",
"MX c #5E8DE3",
"NX c #938B8C",
"BX c #B18088",
"VX c #95A4B3",
"CX c #B3ACAD",
"ZX c #C9AEB1",
"AX c #9BABDC",
"SX c #D0CCD2",
"DX c #DDDADE",
/* pixels */
"6.6.6.5.:.>.5.5.5.6.6.5.6.5.>.5.-.-.>.5.6.6.5.:...-.{ { :.5.-.{  .} .... . .} ! ! ! Q {  ...^ a ",
"..-.-.W u u ) { ..-. ...-.{ ! ) Q ! Q } 5.5...! W ) Q ! ...... .! a p u u a W a Q Q { } ^ ! t 6 ",
"!  .W a ) / W W { ^ !  .{ { } } ....! } ....^ ^ } } { ! { ! { { ! } { W Q Q ! !  .! Q a p W t 0 ",
"5 0 y u a i s k ! p t W p W W ^ >.-.-...p W W {  .} } { W t t t t !  .! W W } >.>.} a 0 0 w u 8 ",
"p p p a / ` #.8.X./ _ | 3.;.| 2.$XOX3.;._ | | 2.3.3.2.0.8.+X8.<.#.<.+X3.3.` ` 3.,.3.| ` u w 6 8 ",
"p t t W | $X=X=X@X0.+X@X+X8.3.@X-Xa.1.+.| #.2.3.3.@X$X=X4X+X@X@Xp.8.p.3.O.( ( ` ] ` | / 8 8 6 0 ",
" .! ~ :.s +X5X5X=X@X#X9X;X*X*Xp.p.a.1.#.2.3.8.8.1.p.=X=X$X3.8.3.3.<.3.i.$.o.o.( ( ` ` / 0 6 6 0 ",
"5.>.>.5.y $X7X5X;X>X<.9.#X&Xs.3.i.s.i.p.<.3.p.%Xa.a.@X$X@X8.<.X       & u.#.O.o.o.<.3.#.s w = 6 ",
"6.6.5.5.y +X8XcX,Xs.4.@.1.&Xp.8.;X&Xi.3.| <.p.6X6Xa.@X+X&X-X#.X ; & &   X <.+.<.a.1.i.3.{ a 6 ; ",
"6.6.6.5.q 0.nXAXmXvXs.4.3.a.s.%XeX6X&X@Xp.&X;XeX0XzXeX;X1X-X&X2XSXvXVXDX8.3.h.#.| o.+.o.Q ! t 6 ",
":.:.5.5.s +X;XkX6XrXhXuX,X&Xp.&X;X-X,XqXqX;X6XrXeXzX,X@.2XwXwX2Xd.d.3XdX#X+.` ( 8 & w ` u 0 0 6 ",
">.5.5.5.q 8.@X;X5XeXfX2XpX1X*X*X*XqXwXdXrX,X#.' 7 X +   : d.@.& - 3 + x $.` k / ;     & s u 0 0 ",
"5.5.:.>.y #.p.a.@X@Xa.1.@.k.*X-X;Xu.& X       %   . B 1   x 7 3 SXDXNXX h h h l sXVX;   & W a W ",
"5.-.} } s o.p.p.p.p.o.` ] h.,X4.O     . 2 G J     # V %   =.* 3 SX+ NXX g j g h ( f.SX=   Q W ! ",
">.} W Q _ 3.&X2.<.k.1.+.#.9.&     U U.L.`.V .   1 J.2   x X X G CXCXX O h * % > e ( sXVX0 ) { ! ",
"..! } ../ 2.2.;.2.@X+X+X8.q   2 Y H J.L o   . m L.H     r * E W.v c * e & I BXDXCXh @.h._ u u a ",
":.-.>.5.q 2.+X$X=X;X5X4X=XX @ M K ~.#   @ G D.m.N.#   X 7 d XXR X & & O > BXNX- z.i +.1.) u w u ",
"5.5.6.6.s $X7X5X7X8X8X8X7XX , b F.^.K.S.D.Q.Z.D.G -   - e.(.F *   X : v [.ZXSXZX& 6 ( ( i u w w ",
":.-.-...i +.p.p.@X5X7X5X&X& . G Q.^.!.Q.Q.!.).S E @ V /.`.D.B.R r 3 x.XXXXd + c O / | ( w u w 8 ",
":. .-.-.y +.a.p.p.&X%Xa.` &   $ G.F.K.K.^.N.G.. n 1 H.b.m.H.Q.E.e..XoX[.* X = 6 / | ` ( e 8 8 8 ",
"! W ! ! / <.%X=X@X+X,.i & + N o   4 E P H.#   @ A 1 , . , H.W.Q.).].v X   | 0.X.| ` ( h 8 f 9 8 ",
"! p W W s ,.0.8.<./ o $ & 7 D M.  + P.@     # G.K.C b ,   m.m.(.].[.7 & #X8.s = = e h e 8 f 9 8 ",
":.^ -.>.W +X5X=X$Xy , n.D $ # Z C , N C C N.~.D.b.b.b.n.. < C.G..X*.& X           : 6 7 = 8 : f ",
" ...-.5.s 8.$X0.,.y   b D n.n.v.V.v.n b , . # , C V.V.C.< b D 2   X   . < V @     & 5 5 = 8 : 9 ",
"5 ! >...y <.( e 9 8 & O 6 - % < I P.n.Z m.v.< < @ C.V.b.b # @ . o I G G.H..     7 | 6 ; ; 8 w 8 ",
"= w ..>.y 8.+.( l l k 8 X X &   i e.A.S V.b.n.< # v.Z.b @ @ < H.K.Z.J.4 . , B . / +.g 9 ; 8 w u ",
"! p W ! s X.<.3.#Xk + , N D M.T.}.{.n.A D.D.D.N.. C H . . P F.C.A.H o   P ~., X k ` ( l u u u s ",
"5...! t 5 W X.<.O   F S.E.{.|..XXXW.S U.}.}.P.{.2 # A A N.C.b.E..   $ Y.(.V @ X s ` +.<.Q ! u 0 ",
"6.6.5...s 0.4X/   2 R.U._.W.M m '.'.Q.`.[.X N T e.% J.^.V.V.D.!.G.G.`.L.M $ $ + 8.2.2.<.Q ! p 0 ",
"6.6.6.6.q 2.7XX   T `.1 M 1 m @ 1 L.^.(.M.. 2 F * w.|.XXT.T.{.[.U.G.K m - o O >X6X0.2.,.W a u u ",
"5.:.5.6.W <.+XX   P. XP @ @ P J.m   P E.M.# B n.X * o U I 4 4 B B 4 %     7 pXfX1X#X3._ w u u w ",
"-.p W >./ 8.@Xe   D }.{.K < . m `.A , J.M.o N n.C @   X         o > > X x yXkXuX2X4.3.| p ! ) W ",
">.a 0 a / +X;Xi.O # n {.`.'.A . P ~.L S.F   B I.A.n.# x f.y.&.%.y.iXiXiXg.yXgXc.f.@.' ` t ^ -.^ ",
">.! 0 = ; y 2.0.3.= . T  XXXY., @ L.'.Z.F   o 2 B N o g g.l.l.c.f.tXjXvXjXjXgXyXj.<X>X>X;.>.5.>.",
"~ -. .p = 5 s <.8.<.0 # F e.}.[.@ A W.B.D X & X       z =.t.g.f.y.jXbXbXbXaXc.f.c.hXnXxX;X0.6.5.",
"! -.5.-.q X.OX5X%X<.| X , C F M.P.L J [.Y X e h z z x &.y.c.c.l.y.aXjXjXaXf.&.=.f.hXMXxX=X7.>...",
"5.5.6.6.q $X5Xs.i.#.o.` &   & $ D M.T.I.b X 8 i ' ' =.f.c.aXaXgXiXiXc.y.r.[ &.&.f.kXmXwX8.| / Q ",
"6.6.6.5.q 0.=X$.] | | o.` k = X X o , , o & k ' @.@.=.f.f.yXyXaXc.&.%.%.y.c.g.r.f.gXhX,X1.` k W ",
"6.6.>.! q 2.0.3.,.+.<./ s | / k h 8 8 ; 8 k ` $.$.h.<X<Xj.uXc.q.%.x x %.c.jXgXg.f.j.f.d.1.| / a ",
"6.6.-.0 6 8.$XOXOX8.8.| _ ` h k ` [ ` ( | | ` O.$.u.,XdX<Xf.f.f.c.tXq.%.c.gXgX&.[ [ [ u.1./ / Q ",
"6.6.5...s OX8X8X7X7X7X=XX.( l h k ` ( o.<.+.o.$.] i.;XeXwX9XdXcXcXcXdXj.j.<Xj.l ] @.[ @.( ( / ) ",
"6.6.6.6.q 0.lX8X7X$X0.+X+Xo.( k <.+XX.` l j l $.p.;X8XeXzXzXzXzXxXxXk.( ' @.' j ] ] ] o.k i u W ",
"6.6.6.6.y =XlX8X5X<.| <.+.l j ( a.8.` l g g j 1.$.i.@X%X%X%Xa.p.&Xs.O.g g j g j ] ] +.$.( p p W ",
"6.6.6.6.q <.+X$X0.X._ X.<.( l / | s 6 h ( ` <.8.o.| +.o.+.a.` / ` 3.| 6 i / k h ( o.| +.u a }  .",
"6.6.6.6.6.6.6.6.} 5 5 p -.>.! t = & = p t W } } } ..} } ..! t 5 t p 5 = 0 W ^ ! a Q Q W 0 ! 5.5.",
"6.6.6.6.6.6.6.6.-.0 5 ! 5.6.-.W W 0 W -.t p ! p ! -.-.-.:.:.-. .-...^ 5 p } -.-.^ } } { p } 5.6.",
"6.6.6.6.6.6.6.6.6.:. .>.6.6.5.5.5.5.6.5.5.6.5.5.5.6.6.6.6.6.6.6.6.6.5.-. ...:.5. .-.5.5...:.6.6.",
"6.6.6.6.6.6.6.6.6.6.6.6.6.6.6.6.6.6.6.6.6.6.6.6.6.6.6.6.6.6.6.6.6.6.6.6.5.5.>.5.5.5.6.6.6.6.6.6."
};
