/* XPM */
static char *_d85de54ae04445b9200dc431aa32938Gx3D5Da2T1pSGIUV[] = {
/* columns rows colors chars-per-pixel */
"48 48 235 2 ",
"   c #000000",
".  c #080607",
"X  c #0C0D0D",
"o  c #110606",
"O  c #130D0B",
"+  c #1A120C",
"@  c #090D13",
"#  c #040C1C",
"$  c #08141C",
"%  c #131414",
"&  c #1B1815",
"*  c #1A1B1B",
"=  c #27150C",
"-  c #241B15",
";  c #321F15",
":  c #2A221B",
">  c #3F2C1F",
",  c #050E25",
"<  c #080F21",
"1  c #050F2B",
"2  c #051324",
"3  c #091525",
"4  c #061B24",
"5  c #081C26",
"6  c #05142C",
"7  c #08142C",
"8  c #061A2C",
"9  c #171C22",
"0  c #061435",
"q  c #081734",
"w  c #061A33",
"e  c #0A1B36",
"r  c #06163B",
"t  c #061B3C",
"y  c #0B1D3B",
"u  c #072224",
"i  c #09232B",
"p  c #1E2122",
"a  c #0B2234",
"s  c #0A2934",
"d  c #0B233D",
"f  c #0C2A3B",
"g  c #162637",
"h  c #11303D",
"j  c #222426",
"k  c #362A21",
"l  c #3A2C23",
"z  c #3E3025",
"x  c #2C2E33",
"c  c #232E3B",
"v  c #26323D",
"b  c #2C333C",
"n  c #36373A",
"m  c #4B2D1D",
"M  c #552D19",
"N  c #5D321C",
"B  c #602F16",
"V  c #43352B",
"C  c #493629",
"Z  c #553A29",
"A  c #4C3D31",
"S  c #493D3B",
"D  c #543C32",
"F  c #5B3E39",
"G  c #653A25",
"H  c #6D3D24",
"J  c #673E2C",
"K  c #713E22",
"L  c #5D412E",
"P  c #4C413A",
"I  c #534235",
"U  c #594636",
"Y  c #5A4638",
"T  c #5C4A3C",
"R  c #61422F",
"E  c #6D422B",
"W  c #734228",
"Q  c #674737",
"!  c #744C34",
"~  c #7A4A30",
"^  c #69523F",
"/  c #77533C",
"(  c #071C43",
")  c #091E46",
"_  c #071D4B",
"`  c #071E53",
"'  c #081F50",
"]  c #072046",
"[  c #0B2443",
"{  c #0D2B44",
"}  c #07204B",
"|  c #0B244A",
" . c #0D2B4B",
".. c #122C44",
"X. c #162C4A",
"o. c #0D3245",
"O. c #0E334E",
"+. c #183547",
"@. c #14334C",
"#. c #072053",
"$. c #082255",
"%. c #0E2B54",
"&. c #072159",
"*. c #08235C",
"=. c #0F2D5B",
"-. c #112D55",
";. c #0F3253",
":. c #0F335B",
">. c #0F385B",
",. c #123355",
"<. c #193656",
"1. c #11345D",
"2. c #133B5C",
"3. c #26364A",
"4. c #363A43",
"5. c #253B54",
"6. c #082663",
"7. c #0F2F61",
"8. c #092769",
"9. c #09296C",
"0. c #0F3264",
"q. c #113463",
"w. c #1A3661",
"e. c #113B64",
"r. c #1B3B63",
"t. c #11356C",
"y. c #123A6C",
"u. c #1A3D6B",
"i. c #092B73",
"p. c #0A2E7C",
"a. c #0E377B",
"s. c #133B73",
"d. c #163B75",
"f. c #133D7B",
"g. c #363F60",
"h. c #3B4045",
"j. c #244159",
"k. c #1C4165",
"l. c #14416D",
"z. c #1A436C",
"x. c #144373",
"c. c #1B4474",
"v. c #14437C",
"b. c #1B447B",
"n. c #1B4A7B",
"m. c #274469",
"M. c #364766",
"N. c #264778",
"B. c #344B73",
"V. c #315177",
"C. c #46444C",
"Z. c #5B4D49",
"A. c #4D4A57",
"S. c #6B5646",
"D. c #745A47",
"F. c #7C5B43",
"G. c #6C5D54",
"H. c #7D634D",
"J. c #6D635C",
"K. c #786255",
"L. c #49506B",
"P. c #455479",
"I. c #6B6A6A",
"U. c #77787A",
"Y. c #83553A",
"T. c #855739",
"R. c #8A5539",
"E. c #825D44",
"W. c #8D6145",
"Q. c #84644A",
"!. c #8C674C",
"~. c #936445",
"^. c #936A4C",
"/. c #996848",
"(. c #9C6B4C",
"). c #876A53",
"_. c #8E7058",
"`. c #9B7253",
"'. c #A5734F",
"]. c #A77450",
"[. c #A57452",
"{. c #A97653",
"}. c #AB7955",
"|. c #A87C5A",
" X c #84746E",
".X c #A37F60",
"XX c #B58459",
"oX c #A7866A",
"OX c #B78C68",
"+X c #BF946F",
"@X c #AB8F74",
"#X c #C29873",
"$X c #143F81",
"%X c #154383",
"&X c #1B4B84",
"*X c #15458B",
"=X c #164B8A",
"-X c #194A89",
";X c #1A5289",
":X c #184C96",
">X c #1B5496",
",X c #1C539C",
"<X c #274D86",
"1X c #28558A",
"2X c #375587",
"3X c #285796",
"4X c #355E99",
"5X c #174EA2",
"6X c #1A52A5",
"7X c #1A53AB",
"8X c #1E5CA8",
"9X c #1B58B4",
"0X c #255AA3",
"qX c #3167AA",
"wX c #2668BA",
"eX c #4C5A87",
"rX c #415C91",
"tX c #516591",
"yX c #616C9F",
"uX c #4B6DAD",
"iX c #5A6DA3",
"pX c #5A75B2",
"aX c #6478B1",
"sX c #1C5EC0",
"dX c #3075CE",
"fX c #4A74C4",
"gX c #577CCB",
"hX c #6D81BB",
"jX c #5882D6",
"kX c #6285D1",
"lX c #5E8DE3",
"zX c #BA9B82",
"xX c #C09E83",
"cX c #CBAD8F",
"vX c #9EAEF6",
/* pixels */
"p.p.p.i.8.9.i.i.i.p.p.i.p.i.9.i.6.6.9.i.p.p.i.8.*.6.#.#.8.i.6.#.&.&.*.*.&.&.&._ _ _ ) #.&.*.' t ",
"*.6.6.( w w } #.*.6.&.*.6.#._ } ) _ ( $.i.i.*._ ( } ) _ *.*.*.&._ t r w w t ( t ) ) #.&.` _ 0 2 ",
"_ &.( t ] ] ( ( #.#._ &.#.#.&.&.*.*._ &.*.*.' ' &.&.#._ #._ #.#._ $.#.( ) ) _ _ &._ ) t r ( w 6 ",
"1 6 q w t e y d _ r 0 ( r ( ( ' 9.6.6.*.r ( ( #.&.&.&.#.( 0 0 0 0 _ &._ ( ( $.9.9.$.t 6 6 8 w 4 ",
"r r r t [  .1.s.=.| | %.y.=.%.t.*X$Xy.7.| %.%.t.y.y.t.f.s.%Xs.q.1.q.%Xy.y. . .y.0.y.%. .w 8 2 4 ",
"r 0 0 ( %.*X:X:X%Xf.%X%X%Xs.y.&X>Xv.e.:.%.1.t.y.y.%X*X:X5X%X%X%Xx.s.x.y.>.{ {  .O. .%.[ 4 2 2 6 ",
"&._ ` 8.y %X6X6X:X%X-X0X>X;X;Xx.x.v.e.1.t.y.s.s.e.v.:X:X*Xy.s.y.y.q.y.l.2.;.;.{ {  . .[ 6 2 2 6 ",
"i.9.9.i.q *X7X6X>X<Xq.u.-X=Xn.y.l.n.l.x.q.y.v.=Xv.v.%X*X%Xs.y.:.%. .1.2.k.1.,.;.;.q.y.1.y 8 # 2 ",
"p.p.i.i.q v.3.fX1Xc.r.<.2.&X5.3.;Xc.c n 4.n x x b 4.n n 4.n b b +.r.r.,.r.q.,.q.r.e.l.y.#.t 2 $ ",
"p.p.p.i.7 f.jXvXkXhXn.u.y.b.b.M.A.A.C S.K.G.J.J.I.I.I.I.U.U.C.C.M.<Xc.N.N.u.N.,.5.;.:.;.) _ 0 2 ",
"8.8.i.i.y %X,XaX8XqXpXrX1X&Xm.C.J H K K W W ~ T.! ! ~./ Y.~ E T Z.<X>X2Xm.5. .{ @.;.;.;.w 6 6 2 ",
"9.i.i.i.7 s.%X,X6X3XuX4XtX2XM.J K ! E.(.~.(.[.{.C C [.[.`.(.^.Y./ H L.L.<.X.a [ ,.y.e.e.d w 6 6 ",
"i.i.8.9.q 1.l.b.&Xc.v.k.j.C.H K W.!.`.}.}.}.{.[.R L }.}.}.[.[.[.T.E H D S s a d .. .,.<.| ( t ( ",
"i.6.&.$.y ,.x.c.x.z.;.h.n J W W.'.}.}.{.'.[.(./.Z Z }.[.{.{.{.{.W.M Z G Y v a a ..d  .O.[ ] ( _ ",
"9.&.( ) | y.&Xu.q.N.e.4.D H E D (.[.(./.! / [.'.C Z T.Y.! ~.(.[.[.N B H G n s d .. . .1.#.#.#._ ",
"*._ &.*.] t.t.<.t.%Xf.%XF K (.R (.}.}.|.W.Y./.[.> / [.'.; ~.~.~.{.'.R.K H z f d f  .O.y.| w w t ",
"8.6.9.i.7 t.%Xb.:X:X,X,XF E cXxXzXcXcXxX#X^.E E.k ).|.|.#XOXXX#X{.[.{.K K G  .;.{ O.1.e.[ w 8 w ",
"i.i.p.p.y *X7X,X7X8X2XQ R ; V Z.Q K E.oXzX@XQ.oX- S.K.H.D./ K.A / D ! m N G X.u.O.{ { { e w 8 8 ",
"8.6.6.*.e :.x.z.b.,X6XA.J N M = = M + W D T l ).oXoXY _.I . D.G o = W m M S ,.t.t.-.%.d 8 w 8 4 ",
"8.&.6.6.q :.x.z.c.=X&XC.l A.Q.J W K K F.Y ).H.).O _.z : O   E R.T.m ! L D T <.%.=.%. .{ 5 5 5 5 ",
"_ ( _ _ [ q.b.-X%X%XN.C.k T ).)._.S.Q.OX+X+XOX& OX.X^ +       A OX|.D._.S.T I.7.%. .[ a 5 u 4 5 ",
"_ r ( ( y 7.s.d.q.r.m.3.V }.z I H._.^ V Q.O - U C + z ).& : C [.`.^.A D.Y A  X<.[ a a 8 4 u 4 5 ",
"8.` 6.9.( %X:X:X*Xm.2.o.l k V A W.V D.^.^.- - F.^.[.F./ ^.Q.^.^ `.Y k k Y P L...i 4 3 2 # 4 $ u ",
"&.*.6.i.e s.*Xf.q.y.v.x.3 : k V Q A I F.Q z C E.L l Q !.F.Q.Q.^ D V V A S X.t.%.a 3 < < # 2 $ 4 ",
", _ 9.*.q q.{ 8 4 5 a <.. & * l V V : & k A I U z k I Y I A V V V V -   % g s.*X$X%.3 $ $ 2 8 2 ",
"# 8 *.9.q s.:.{ f f ..2.X * * * * X     O & O .   .                       9 z.=X=X:.i 4 $ 4 8 w ",
"_ r ( _ y =.q.y.;X8X:X1X  * * * * .                                       9 j.x.q. .{ d w w w y ",
"i.*._ 0 < ( =.s.0XwX>X<X% * * * * .                                       * 3.-.|  .:.q.) _ w 6 ",
"p.p.i.*.e f.5X9X0X=X>X3X& * * * * .                                       * 3.w.v.t.t.q.) _ r 6 ",
"p.p.p.p.7 t.7XsX0X7X9X0X* * * * * .                                       O M.4X0Xf.y.7.( t w w ",
"i.8.i.p.( q.%X=Xz.=X9XqX* * * * * .                                       o eXuX4X&Xy. .8 w w 8 ",
"6.r ( 9.[ s.v.O.+.O.l.c.% * * * * .                                       O pXrXrXu.y.%.r _ } ( ",
"9.t 6 t ] %X>Xl.+.o.;.k.p * * * * X                                       O iXP.M.<.X. .0 ' 6.' ",
"9._ 6 # $ q t.f.z.l.=Xv.$ * * * * * X                                     b yXeXM.2X<X<X0.9.i.9.",
"` 6.&.r # < d q.u.q.s.q.... % * * * * X                                 % tXP.M.P.pXjXdX,Xa.p.i.",
"_ 6.i.6.7 =.f.,X-Xq.1.,.d o * * * * * * X                               9 3.5.5.M.pXlXdX:Xa.9.*.",
"i.i.p.p.7 *X,Xn.l.1.,.2. .o % * * X % * * % %                         % @ +.5.5.M.aXkXqXy.%.[ ( ",
"p.p.p.i.7 f.;X2.@.%.%.@.{ a g g * % * * * * * % % % .                 g 5.P.B.j.M.iXpX1Xe. .d ( ",
"p.p.9._ 7 t.d.y.1.:.7.y y  .| [ % % * * * * * * * * % X X X X X . 9 g 3.P.yXiXB.M.B.B.m.e.%.[ t ",
"p.p.6.6 2 s.*X$Xc.s.s.-.|  .a a 3 * % % % % % % % % & % X % X X M.eXg.3.L.iXiX5.+.+.+.k.e.[ ] ( ",
"p.p.i.*.y $X9X9X9X7X7X&X1.{ f a d X.* j p 9 9 X X X   . @ % 9 fXfXgXuXB.B.2XB.h o.<.@.2. .[ ] ] ",
"p.p.p.p.7 f.6X9X7X*Xu.b.v.5.{ f q.%X,.3.+.s f 2.x.V.<XwXwXwXsXdXdXdXN.o...2...s o.@.@.;.d e w ( ",
"p.p.p.p.q :X:X9X6Xq.%.q.1.h s ..m.d. .f i i s e.2.l.&X=X=X=Xx.c.&Xm.<.i i s i s o.O.:.e.[ r r t ",
"p.p.p.p.7 q.c u.f.=.| =.q.{ f [ %.e 3 a d  .1.y.@.c 3.3.c v c .. .y.%.3 e [ d a { ,.%.:.w t $.&.",
"p.p.p.p.p.p.p.p.&., , r 6.9.' 0 # @ # r 0 ( &.&.$.*.$.$.*._ 0 , 0 r , # 6 ( ' _ t ) ) ( 6 _ i.i.",
"p.p.p.p.p.p.p.p.6.6 , _ i.p.6.( ( 6 ( 6.0 r _ r _ 6.6.6.8.8.6.&.6.*.` 1 r &.6.6.` &.$.#.r &.i.p.",
"p.p.p.p.p.p.p.p.p.8.&.9.p.p.i.i.i.i.p.i.i.p.i.i.i.p.p.p.p.p.p.p.p.p.i.6.&.*.8.i.&.6.i.i.*.8.p.p.",
"p.p.p.p.p.p.p.p.p.p.p.p.p.p.p.p.p.p.p.p.p.p.p.p.p.p.p.p.p.p.p.p.p.p.p.p.i.i.9.i.i.i.p.p.p.p.p.p."
};
