/* XPM */
static char *_d3a3a1587734221b2e8ecc4ef16fbd9aXuXrL5KNEhkIJCt[] = {
/* columns rows colors chars-per-pixel */
"48 48 248 2 ",
"   c #010001",
".  c #090409",
"X  c #050A1A",
"o  c #160B12",
"O  c #06141E",
"+  c #2B0C14",
"@  c #3E2519",
"#  c #060E25",
"$  c #051324",
"%  c #091324",
"&  c #061B24",
"*  c #05142C",
"=  c #09162B",
"-  c #061A2C",
";  c #181D2E",
":  c #061435",
">  c #091736",
",  c #061A33",
"<  c #0A1B35",
"1  c #06163B",
"2  c #061B3C",
"3  c #0B1C3B",
"4  c #320F2B",
"5  c #082329",
"6  c #0B2234",
"7  c #0B243D",
"8  c #0B2939",
"9  c #17293A",
"0  c #13303D",
"q  c #382823",
"w  c #2F2F34",
"e  c #480631",
"r  c #5D2826",
"t  c #4E312B",
"y  c #5B3927",
"u  c #483938",
"i  c #643C28",
"p  c #39443D",
"a  c #534C32",
"s  c #594439",
"d  c #67452F",
"f  c #694936",
"g  c #744A35",
"h  c #78533B",
"j  c #6D6732",
"k  c #071C44",
"l  c #091D47",
"z  c #071D4B",
"x  c #071F52",
"c  c #381849",
"v  c #0B2443",
"b  c #0D2B45",
"n  c #07204A",
"m  c #0B244A",
"M  c #0D2B4B",
"N  c #152946",
"B  c #122B4D",
"V  c #0E324C",
"C  c #13334C",
"Z  c #193549",
"A  c #072053",
"S  c #082255",
"D  c #0E2C54",
"F  c #09245C",
"G  c #0B285A",
"H  c #112D57",
"J  c #0F3454",
"K  c #0F335B",
"L  c #133354",
"P  c #11335D",
"I  c #173858",
"U  c #342B4F",
"Y  c #243848",
"T  c #383945",
"R  c #243B56",
"E  c #082663",
"W  c #0C2965",
"Q  c #092769",
"!  c #0A296C",
"~  c #123563",
"^  c #123B64",
"/  c #1A3C67",
"(  c #11316D",
")  c #12356C",
"_  c #123B6C",
"`  c #092B74",
"'  c #0A2E7C",
"]  c #133C73",
"[  c #163975",
"{  c #143D7A",
"}  c #29356C",
"|  c #4D144A",
" . c #570458",
".. c #710D55",
"X. c #6B195C",
"o. c #4F304B",
"O. c #713351",
"+. c #550F62",
"@. c #680965",
"#. c #70126F",
"$. c #7A1777",
"%. c #4F2E6C",
"&. c #742C68",
"*. c #344549",
"=. c #284359",
"-. c #374459",
";. c #184269",
":. c #144274",
">. c #14437C",
",. c #1A467A",
"<. c #28496C",
"1. c #354768",
"2. c #244875",
"3. c #384E74",
"4. c #4F4D4D",
"5. c #684A43",
"6. c #74444A",
"7. c #695449",
"8. c #775947",
"9. c #625B58",
"0. c #6A615C",
"q. c #7B6652",
"w. c #4C4F6F",
"e. c #455478",
"r. c #6A5368",
"t. c #666566",
"y. c #78706C",
"u. c #D70C12",
"i. c #E8060B",
"p. c #F50205",
"a. c #F1050A",
"s. c #E91D08",
"d. c #D62D0E",
"f. c #F13205",
"g. c #9B6528",
"h. c #D3540F",
"j. c #F84204",
"k. c #D86B11",
"l. c #8D0853",
"z. c #A6055C",
"x. c #911270",
"c. c #AD0D70",
"v. c #B80579",
"b. c #992D72",
"n. c #AB2977",
"m. c #CB0D6D",
"M. c #C9017A",
"N. c #D80376",
"B. c #EC037B",
"V. c #D1257F",
"C. c #894944",
"Z. c #865D45",
"A. c #85495A",
"S. c #896349",
"D. c #95684A",
"F. c #876855",
"G. c #906F57",
"H. c #987459",
"J. c #A57759",
"K. c #8B4D6C",
"L. c #A6447B",
"P. c #8F7866",
"I. c #B4911A",
"U. c #B49131",
"Y. c #D7870B",
"T. c #DE9917",
"R. c #D9A80B",
"E. c #F1B904",
"W. c #C9A529",
"Q. c #F8C100",
"!. c #AE8457",
"~. c #928275",
"^. c #B18A6B",
"/. c #C8A16E",
"(. c #143F81",
"). c #3B3B89",
"_. c #791383",
"`. c #5C2B82",
"'. c #154383",
"]. c #1A4B84",
"[. c #16458B",
"{. c #164A89",
"}. c #194C8A",
"|. c #1A558A",
" X c #184C95",
".X c #1B5395",
"XX c #1B539B",
"oX c #294D83",
"OX c #29568A",
"+X c #375586",
"@X c #275A98",
"#X c #395D99",
"$X c #34619A",
"%X c #174EA1",
"&X c #1B52A3",
"*X c #1C58A8",
"=X c #1C59B5",
"-X c #245DA7",
";X c #1F61B9",
":X c #2D68AD",
">X c #3668AD",
",X c #2367B7",
"<X c #4E5D87",
"1X c #435E92",
"2X c #576A93",
"3X c #616F9F",
"4X c #4969A7",
"5X c #5871AE",
"6X c #476CB2",
"7X c #4772BA",
"8X c #6577AC",
"9X c #2D75D1",
"0X c #4977CD",
"qX c #90048D",
"wX c #B31288",
"eX c #B12D8B",
"rX c #C40184",
"tX c #D70283",
"yX c #D21686",
"uX c #EA0B8A",
"iX c #CF2B8E",
"pX c #EA2793",
"aX c #E53498",
"sX c #F7379B",
"dX c #D327A8",
"fX c #9C5192",
"gX c #AC6897",
"hX c #D74E9B",
"jX c #D654A7",
"kX c #EE4EA9",
"lX c #D164AA",
"zX c #E96CB4",
"xX c #FF71BF",
"cX c #FE76C6",
"vX c #F972CE",
"bX c #7283BA",
"nX c #5482D8",
"mX c #6285D1",
"MX c #618EE4",
"NX c #B89C82",
"BX c #B287A3",
"VX c #A6B0AA",
"CX c #CCAB8F",
"ZX c #E6BA91",
"AX c #9EAEF6",
"SX c #FF85CF",
"DX c #DFA9D0",
"FX c #E6ECE9",
/* pixels */
"' ' ' ` Q ! ` ` ` ' ' ` ' ` ! ` E E ! ` ' ' ` Q F E A A Q ` E A S S F F S S S z z z l A S F x 2 ",
"F E E l , , n A F E S F E A z n l z l S ` ` F z k n l z F F F S z 2 , , , 2 l 2 l l A S x z : $ ",
"z S k 2 n v k k A A z S A A S S F F z S F F x x S S A z A z A A z S x k l l z z S z l 2 1 k , - ",
"# * : , 2 , 2 7 z 1 : k , k k x ! E E F 1 k k A S S S A k : : : : z S z l l F ! ! S 2 - * - , & ",
"1 1 1 2 v b P ] H v m H _ P D ) [.(._ ~ m D D ) _ _ ) { ] '.] ~ P ~ '._ _ M M _ ~ _ D b , - $ & ",
"1 : : k D [. X X'.{ '.'.'.] _ '..X>.^ K D P ) _ _ '.[.XX%X'.'.'.:.] :._ =.b w Y V M D v & $ $ * ",
"S l x Q 3 '.&X&X X'.].-X.X].|.:.:.>.^ P ^ ~ _ _ ^ :.[. X[._ ] _ _ -.E.Q.Q.Q.Q.a N M b v - $ $ - ",
"` ! ! ` > [.&X&XXXoX~ ] }.}.,._ :.,._ :.~ _ :.{.>.>.'.[.'.] _ P L R.E.h.d.i.s.R.Y I _ P 2 - X $ ",
"' ' ` ` > >.=X0XOX,./ I ^ }.,.] XX}.;.^ H ~ >.*X*X>.'.'.}..X] M M I.j.u.p.a.d.Y.<.^ ;._ S 2 $ O ",
"' ' ' ` = { nXAXmXbX,./ _ '.,.}.,X&X}.].:.}.XX,X;X9X,XXX@X.X}.>.'.I.f.i.p.u.d.k.R L K J l z : $ ",
"! ! ` ` 3 '.XX8X*X>X5X1XOX}.:.].OX].oX@X@X.X*X:X,X9X9X2.#X>X>X7X,XU.f.a.p.i.d.h.Z Z J D , - - $ ",
"! ! ! ` = ] {.XXXX-X4XOX1X+X<.2.o.%.%.%.w.$X-X#X#XnXMX7X>X>X>X:X-XW.f.p.u.p.f.h.L / ^ ^ 3 , * - ",
"` ` Q ! < P :.>.].,.,.^ R 1.w.&.b.eXeXeXb.&.w.+X+X6X5X7X6X6X6X#XOXW.f.a.p.p.d.k.7 B L I m k 2 k ",
"! E S S 3 L :.:.:.;.Z Z U r.lXdXaXkXkXkXkXdXjXfX4.w . e.4X1X1X+X<.I.j.p.p.i.s.Y.v 7 M V v n k z ",
"W S l l m _ }.) ~ 2.I %.x.eXkXcXcXxXxXxXxXcXcXaXe o u ~.0.w 4.t.4.g.k.p.p.p.d.I.N M V P S A A z ",
"S z S F v ) ) ~ / 2.} x.c.o.t K.lXcXcXcXcXSXcXO.  X.&.P.NX^.~.t.t.9.Y.s.s.d.g.a w M V _ m , , 2 ",
"G E ! ` = ~ '.'.].2.x.M.m.e 4     K.lXcXcXcXb.. e e 4 q.CXCX~.t.t.4.j E.E.R.j *.Z V K ^ v , - , ",
"( ` ' ' 3 '.&XXX&X%.c.N.e o iXl.| . o L.kXjX+ u gX.   ; 4.7.q.y.0.4.T =.N B B / V b b b , , - - ",
"W W E S < P :.;.,.#.v.N.o z.N.z...&.| . l.yX| BXFXp     q t G.^.S.P.F.4.Y j I ) ) H D 7 - , - & ",
"W G E G < L >.:.,._.wXN.N.N.l.o w BXzXl.x.pXc.gXVX4.    s F.^.ZX^./.CXI.R.R.4.Y P D M b - & & & ",
"z k l l v P <.}.2._.rXN.uXz.+   y.FXDXc.kXvXeXc o o     s P.~.NX^.^./.k.i.a.h.j D b v 6 & 5 & & ",
"l 1 l k 3 P ;.[ R $.rXB.rX@..   ; VXVXe V.vXvX&.      . q 7.9.q.H.8.U.T.a.u.q.j v 6 6 - & 5 & & ",
"E x G W k '. X2./  .v.B.v.| .     q w 4 hXcXSXzXb. . . .w w w O.6.q.!.W.I.I.*.b 5 & $ % X & O 5 ",
"S F G ! 3 R c c 4 U x.tXN....       4 L.aXaXaXsXsXiX&.iXx.@. .O.X.X.@.A.^.7.Z D 6 % % % X $ O & ",
"% z W F > %.@.@.@.#.wXtXM.c.e o . e eX4 c.m.l.e o   . aXsXsXsXsXiXn.b.O.D.5.=.[.(.D $ O O $ - $ ",
"X - F ( +.$.x.x.tXM.M.x. .#.qX$...z.pX+         . 4 v.sXsXaXn.eXwXx.@.6.h 4.-.{.[.K 5 & O & - , ",
"x 3 l U $.v.tXtXc.%.c U | @.wXkXpXN.rX#...hXK.b.x.@.x.yXsXb.@.@.@.+.| q q w *.:.~ M b 8 , , , 2 ",
"` G N | v.x.x.x.%.,X2.-.K.hXyXyXwXqX#.4 ..zXSXhXX.u o.@.wXsXV.V.c.X.o.f g t ; D m M K ~ l z , * ",
"' ' #.uXv.#.} ).`.1.%.fXkXsXv... .| o.o. .yXxXgXq.Z.S.7.O.n.iXiXb.@.A.J.D.r N / >.) ) ~ l z , - ",
"' ' [ %.@.#.*X=X@.x.v.dXiXl. .o.o.u D.G.6.c.pXK.S.h g D.H.&.X.@.#.&.S.D.Z.t 1.#X-X{ _ ~ k 2 , , ",
"` Q ` ' N } ,.2.| x.c.x.+.c o.S.J.S.Z.D.Z.X.v.b.5.g y S.!.J.Z.A.F.F.F.S.y u 2X6X@X]._ M - , , - ",
"E , k ! v ] ,.Z Y Y =.<.<.w 7.8.h h h h 8.5.l.v.K.9.f S.^.J.S.8.F.F.G.q.u -.5X1X#X/ _ D 1 z n k ",
"` k - 2 v >.XX;.C b J :.,.+ t g y y i y f g O.l.iXgX5.D.^.H.7.s y f 7.7.4.<X3Xe.1.Z B N : x E x ",
"! l * % O < ) ] ] <.2. X.X; @ y d i y y f h h O.v.eXf D.D.h y t d Z.g e.2X3X3X<X3.+XoXoXW ! ` ! ",
"x E S 3 % % 7 ~ / ~ _ ~ D 0 s h h d g h g d i C.c.o.r d d d g f H.^.y.8XbX2Xe.1.e.5XnX9XXX' ' ` ",
"z E ` E < H >.XX].~ P B 7 6 9 q @ d h f g d i g 6.y @ t s 8.Z.S.D.y.3X3X2X1.R R -.5XMX9X X] ! F ",
"` ` ' ' = [.&X,.;.P B I C 7 7 9 u s s f f s s s f d s 8.G.G.h d f <Xe.=.=.Z Y Y -.8XmX>X_ G v k ",
"' ' ' ` = {  XI C D D L M b L b Y T u f 7.9.9.9.0.0.t.y.G.S.f w.e.Y Y Y -.e.3.=.1.2X5XOX^ m 7 k ",
"' ' ! l = ) { _ ~ P ~ v 3 Z N b b b Y t.~.t.Z I I 2.+Xw.~.y.w.} Y 9 9 Y e.3X3X3.1.3.1.<.^ D v 2 ",
") ' E * % ] [.[ { ] ] H m Z 6 6 b C C C =.R M I =.;.OX4X+X1.1.1.e.e.-.Y w.3X3XR Z Y Z ;.^ v v l ",
"' ' ` F 3 (.=X=X*X&X*X XP b 9 6 7 M b L I I L I V ;..X,X>X#X6X7X6X5X4X3.1.3.3.0 C I C I b v v n ",
"' ' ' ' = { &X&X X{ [ { ,.I b 8 ~ '.H b 7 8 8 P :. X=X;X9X9X,X,X9X>X2.b N I 0 6 0 C V J 7 < , k ",
"' ' ' ' >  X=X=X XP B ~ P 7 8 b >.] M 8 5 5 8 ^ P ;.'.{.{.}.:.:.}.,.J 5 5 8 5 6 V V K P v , , k ",
"` ' ' ' = ~ '.[.{ H m D P 7 7 v D 3 $ 6 7 M ~ ] J D K J K '.M v M _ B = < v 7 6 b K D K , 2 S S ",
"' ' ' ' ' ' ' ' S # # 1 E ! z : X X X 1 : k S S S F S S F z : # : 1 # X * k x z 2 l l k * z ` ` ",
"' ' ' ' ' ' ' ' E * # l ` ' E l l * k E : 1 l 1 z E E E Q Q E S E E x * 1 S E E x S S A 1 S ` ' ",
"' ' ' ' ' ' ' ' ' Q S ! ' ' ` ` ` ` ' ` ` ' ` ` ` ' ' ' ' ' ' ' ' ' ` E S F Q ` S E ` ` F Q ' ' ",
"' ' ' ' ' ' ' ' ' ' ' ' ' ' ' ' ' ' ' ' ' ' ' ' ' ' ' ' ' ' ' ' ' ' ' ' ` ` ! ` ` ` ' ' ' ' ' ' "
};
