/* XPM */
static char *_1f2070179c14f14f5c8089758e9e79bgvOjxDPL5wsvN3TK[] = {
/* columns rows colors chars-per-pixel */
"48 48 211 2 ",
"   c #000102",
".  c #02050B",
"X  c #06080E",
"o  c #030711",
"O  c #040914",
"+  c #090C14",
"@  c #050C1C",
"#  c #0D0F18",
"$  c #06121D",
"%  c #0A121E",
"&  c #061B1F",
"*  c #050E22",
"=  c #080F21",
"-  c #050F2B",
";  c #061224",
":  c #091324",
">  c #061B24",
",  c #081924",
"<  c #06142B",
"1  c #08142B",
"2  c #061A2C",
"3  c #091A2B",
"4  c #101420",
"5  c #131929",
"6  c #061534",
"7  c #081733",
"8  c #071A33",
"9  c #0A1B34",
"0  c #06163B",
"q  c #071C3C",
"w  c #081E3C",
"e  c #151E31",
"r  c #072224",
"t  c #08232B",
"y  c #0A2334",
"u  c #0A2934",
"i  c #0A243D",
"p  c #0B2A3B",
"a  c #1B2435",
"s  c #1C273A",
"d  c #0F303C",
"f  c #222A3F",
"g  c #061741",
"h  c #071C43",
"j  c #0A1F42",
"k  c #071D4B",
"l  c #081F4E",
"z  c #071E53",
"x  c #081F50",
"c  c #072046",
"v  c #092244",
"b  c #0C2B44",
"n  c #07204B",
"m  c #09254A",
"M  c #0D2B4B",
"N  c #112F43",
"B  c #152B48",
"V  c #142D4D",
"C  c #0D3245",
"Z  c #0E334E",
"A  c #113444",
"S  c #15374A",
"D  c #19344C",
"F  c #1F394D",
"G  c #072053",
"H  c #082255",
"J  c #0D2C54",
"K  c #072159",
"L  c #08235C",
"P  c #0E2E5B",
"I  c #102D56",
"U  c #0E3254",
"Y  c #0F3853",
"T  c #0E325B",
"R  c #0F385B",
"E  c #123555",
"W  c #1C3657",
"Q  c #133B56",
"!  c #10345D",
"~  c #123A5C",
"^  c #262E44",
"/  c #203544",
"(  c #2B314A",
")  c #233C4C",
"_  c #283C53",
"`  c #353E5E",
"'  c #082663",
"]  c #0F2F61",
"[  c #092769",
"{  c #09296C",
"}  c #102F61",
"|  c #0F3462",
" . c #0F3864",
".. c #0E3469",
"X. c #113564",
"o. c #123B65",
"O. c #1B3A65",
"+. c #11366C",
"@. c #123B6C",
"#. c #1A3E6B",
"$. c #092A71",
"%. c #092B73",
"&. c #0A2D7A",
"*. c #0A2E7C",
"=. c #0E377B",
"-. c #123B73",
";. c #133D7B",
":. c #363F60",
">. c #2A4254",
",. c #35415C",
"<. c #134266",
"1. c #1D4265",
"2. c #13426C",
"3. c #134374",
"4. c #1B4373",
"5. c #174976",
"6. c #14437D",
"7. c #19457C",
"8. c #16497C",
"9. c #1A4C7C",
"0. c #29456B",
"q. c #354765",
"w. c #35436B",
"e. c #3D4B6D",
"r. c #3B546F",
"t. c #224673",
"y. c #254B7A",
"u. c #374772",
"i. c #334C74",
"p. c #3B4A72",
"a. c #23507E",
"s. c #395174",
"d. c #424D74",
"f. c #425676",
"g. c #43527D",
"h. c #143F81",
"j. c #144383",
"k. c #154682",
"l. c #164A84",
"z. c #184C85",
"x. c #15458B",
"c. c #164C8B",
"v. c #194D8A",
"b. c #1B5086",
"n. c #19538C",
"m. c #174C94",
"M. c #184B95",
"N. c #184D95",
"B. c #174B9A",
"V. c #1A5495",
"C. c #19539A",
"Z. c #19539B",
"A. c #2A4D84",
"S. c #2D5483",
"D. c #2C568E",
"F. c #345382",
"G. c #395589",
"H. c #2A5894",
"J. c #375C95",
"K. c #174EA2",
"L. c #1953A4",
"P. c #1E5EA4",
"I. c #1953AC",
"U. c #1C5AAE",
"Y. c #1A56B3",
"T. c #1C5BB4",
"R. c #1B5BBB",
"E. c #275EA4",
"W. c #385EA3",
"Q. c #1F62BD",
"!. c #3565AA",
"~. c #2568B1",
"^. c #236ABD",
"/. c #316AB4",
"(. c #485583",
"). c #4B5B8A",
"_. c #425D92",
"`. c #55658C",
"'. c #49679A",
"]. c #5B6F96",
"[. c #4869A8",
"{. c #5A6DA3",
"}. c #4D72AE",
"|. c #456BB3",
" X c #5875B3",
".X c #6573A5",
"XX c #647BB8",
"oX c #1B5CC1",
"OX c #1F64C8",
"+X c #226DCB",
"@X c #2471CC",
"#X c #3771C2",
"$X c #2977D1",
"%X c #387EDA",
"&X c #4B76C9",
"*X c #577CCB",
"=X c #6A82BE",
"-X c #7A87BF",
";X c #5F83C6",
":X c #5983D7",
">X c #6783C8",
",X c #6E89CA",
"<X c #748ECF",
"1X c #6089D8",
"2X c #7997DC",
"3X c #5E8DE3",
"4X c #87A2EA",
"5X c #99AFFA",
"6X c #9BB4FF",
"7X c #A4BAFF",
"8X c #B8C8FF",
/* pixels */
"&.&.&.%.[ { %.%.%.&.&.%.&.%.{ %.' ' { %.*.*.%.[ L ' G G [ %.' G K K L L K K K k k k k G K L x q ",
"L ' ' h 8 8 n G L ' K L ' G k n k k k H %.%.L k h n k k L L L K k w 0 8 8 q k q k k G K z k 6 ; ",
"k K h q c v h h G G l K G G K K L L n K L L x l K K G k G k G G k H G g k k k k K k k q 0 g 8 < ",
"- < 6 8 w 9 w i k 0 6 g 0 h g l { ' ' L 0 g g G K K K G g 6 6 6 6 k K k h h H { { H w < 2 2 8 , ",
"0 0 0 q v M ! -.P m m I @.P J +.x.h.@.] m J J +.@.@.+.;.-.j.-.X.! X.j.@.@.M M @.| @.J M 8 2 ; , ",
"0 6 6 g J x.m.N.k.;.j.k.j.-.@.k.V.6.o.T J ! +.@.X.6.x.B.B.j.k.k.3.-.3.@.T b b M Z M J b , ; ; 2 ",
"K k z [ w j.L.L.m.k.z.E.V.b.n.3.3.3.~ R +.+.-.-.| @.6.j.-.| @.@.@.X.@.2.o.U Y b b M M v < ; ; < ",
"%.{ { %.7 x.I.L.Z.A.X.#.z.c.8.@.2.5.o.@.T X.@.6.@.......| | X.T J M ! ~ 1.! E U U X.@.! w < @ ; ",
"*.&.%.%.7 6.T.&XD.4.O.W o.v.4.@.c.3.| T J J | 3.| T | P T P T M M X.O.E O.X.E X.5.o.2.@.G q ; $ ",
"*.&.&.%.1 ;.:X5X>X=X9.#.@.6.7.6.l.@.J i X ; o X X X X m M J T T | -.@.t.7.@.y.E J U R U k k 6 ; ",
"[ [ %.%.w j.Z.XXP./. X_.D.z.@.@.7 .   ; X 2 @ o X X X @   . < M X.@.@.b.z.! V b M U U U 8 < < ; ",
"{ %.%.%.1 -.l.Z.L.~.}.J.'.H.3.i   @ 8 m m m m m m m v 7 < .   . w T  .5.! M i v U @.o.o.i 8 2 < ",
"%.%.[ { 7 ! 3.6.l.l.5.o.W 4.b . @ v m m m @.,X6X7X8X2X3.m v <     w J U b y y i i M E E m h q h ",
"%.' K H w E 3.3.3.3.U M 3   X O w v m m m J 3.@.G.5X}.}.M m m v .   2 M b p u u v i M Z v c g k ",
"{ K h k m @.v.+.X.y.o.! @ @ X 6 w v m m m m m m m a.J ;XJ m m m v X   v b p u p b M M ! G G G k ",
"L k K L v +.+.} +.k.j.X.O : @ w v v m m m m m m m m m m m m m m v w   @ i p i i p M Z @.m 8 8 w ",
"[ ' { %.1 +.j.x.B.Z.L.m 7 o * w v v m m m m m m m m m m v v m 4X>Xv < o w M M U b Z R o.c 8 2 8 ",
"%.%.&.&.w x.I.L.I.T.R.7 O   < w i v v v v m m m m m m m v v v S.7X6Xw o X 1 m #.Z b b b 9 8 2 2 ",
"[ ' ' L 9 T 3.3.k.L.U.1   X < w w v v v v v v v m m m m v v v m '.,Xw ;   . w +.+.P J i 2 8 2 , ",
"[ K ' ' 7 R 6.3.3.c.c.;   ; < w w v v v v v v v v m m m m v v S.2X<Xw 2 X X O m P J M b 2 > > > ",
"k g k k v X.c.B.j.k.x.=   ; ; 8 w v v v v v v w v v m m m v v y.,XF.v 8 o @ o J J M v u > r > > ",
"k 0 h g w | ;.-.X.* @.;   O @ 2 w v v v v v w w w v m m m v v t.=X8XT w * .   m b y y 3 > r > > ",
"[ z ' { j j.L.M.x.O 1 $   o @ 8 v v v v v v w 8 w v v v v w w m ! m v w < .   @ t > : ; @ , & r ",
"K L ' %.9 -.x.;.| 7 . w   @ * w v v v v m v w 8 w w v v v v w w v v v w < X .   , : = = @ ; & > ",
"* n { L 7 X.b 3 , ,   O @ ; ; 8 w m v v v v v w w w v v v v v v v w w 8 <   X = : J : $ $ ; 2 ; ",
"@ 2 L { 7 -.T b p p , .   < @ < 8 w v v v v v v v v v v v v v v v w w 6 < o   @.-.T t , & > 2 8 ",
"k 0 h k w P X.@.n.P.m.:   7 O @ < 8 w v v v v v v v v v v v v v v w w < @ O   X.X.M b p 8 8 8 w ",
"%.L k 6 = j P -.U.^.Z.L.  . . . @ < 8 w v v v w v v v v v v v v v w 2 O X X   9 m M T X.k k 8 2 ",
"*.&.%.L 9 ;.K.Y.R.c.Z.R.X       o @ 2 w v v v w w w w w w w w w 8 ; O . X X   V 6.+.+.X.k k 0 < ",
"*.*.*.&.1 +.I.oXT.I.T.OXm         o < 8 w v v w w 8 9 0 w 8 2 < * O         5 J.E.;.@.| h w 8 8 ",
"%.[ %.&.j X.j.c.3.c.T.%Xv.    . . X @ < 2 w w w 2 < 2 8 8 2 * O X .       . ).|.H.z.@.M 2 8 8 2 ",
"' 0 g { v -.k.Z p Z 3.n.P..   @ X . X O @ * * * @ @ @ ; < ; @ X     . . . + (._.J.#.@.J 0 k n h ",
"%.q < w v j.Z.2.Z C Y 3.z.@     O                 . X @ * O X .   .     . O ` g.0.D V B 6 x ' z ",
"{ k 2 @ $ 7 +.;.3.2.c.B.V.9     . .                   . X . .     + X . ,.4 e ).p.G.A.A...{ %.{ ",
"z ' K 0 @ = w X.-.X.-.X.1                                         # % q.-X( + ` g. X:X%XZ.=.&.%.",
"k ' %.' 1 P j.L.c.X.I :     . $               . . .       X 4 X + . X `.].>.+ ) q. X3X%XN.=.{ L ",
"%.%.*.&.1 x.L.8.2.v O : O 2 y u u .     O X ; , e : + X + 5 ^ e._ a + + ) F ) ) q.XX1X!.@.J v h ",
"*.*.&.%.1 ;.m.~ Z O . O 9 b U b b M $     , i V D B s a s ` e.`.f.) / . a f.r.>.q.{. XS.o.M i j ",
"*.*.{ k 1 +.;.@.X.b J v w M v 3 $ O . . 9 M M ~ ~ t.F.u.u.).g.` ^ a f f q..X{.e.q.s.i.0.o.J v w ",
"*.*.' < ; -.x.h.h.-.-.J m M , X o $ y b J J M E ~ <.D.[.G.w.w.w.g.(.:.( d.{.{.) F F D 1.o.v v h ",
"*.*.%.L w h.R.Y.Y.I.I.M.P b p y i M b U X.T U ~ Z 2.V.^.!.W.|.&X&X*X[.i.i.F.i.d A Q S Q M v v c ",
"*.*.*.&.1 ;.oXR.I.x.;.h.j.U b i X.j.P M b u p ~ 3.Z.T.Q.+X+X+X@X$X#Xa.A N Q N u C Z Z Y i 9 8 h ",
"*.*.*.*.7 B.oXR.L.X.J X.T p u b 6.-.M p t t u o.~ 2.k.c.c.c.5.3.c.5.Y t t p t u C Z R X.v 0 0 h ",
"*.*.*.*.1 X.j.x.;.P m P X.b p v J 9 : y v M X.-.U J T U T j.M b M @.J : 9 v i y b U J P 8 q H K ",
"*.*.*.*.*.*.*.&.K * * 0 ' { k 6 @ O @ 0 6 g K K K L H K L k 6 * 6 0 * @ < g x k q k k g < k %.%.",
"*.*.*.*.*.*.*.&.' < * k %.*.' h h < g ' 6 0 k 0 k ' ' ' [ [ ' K ' ' z - 0 K ' ' z K H G 0 K %.&.",
"*.*.*.*.*.*.*.&.&.[ K { &.*.%.%.%.%.&.%.%.&.%.%.%.&.&.&.&.&.&.&.&.&.%.' K L [ %.K ' %.%.L [ &.&.",
"*.*.*.*.*.*.*.*.*.*.*.*.*.*.*.*.*.*.*.*.*.*.*.*.*.*.*.*.*.*.*.*.*.*.*.*.%.%.{ %.%.%.&.&.&.&.&.&."
};
