/* XPM */
static char *d952bed0a1684ac698dbf59cedd29190pw4sTczbBzUviMMB[] = {
/* columns rows colors chars-per-pixel */
"48 48 252 2 ",
"   c #010101",
".  c #08050A",
"X  c #090512",
"o  c #040C1C",
"O  c #150A13",
"+  c #150F12",
"@  c #07141C",
"#  c #2E041E",
"$  c #060E25",
"%  c #061324",
"&  c #091224",
"*  c #061B24",
"=  c #0A1A25",
"-  c #06152B",
";  c #09142C",
":  c #061A2C",
">  c #0A1C2B",
",  c #14142D",
"<  c #061435",
"1  c #091632",
"2  c #061A33",
"3  c #0A1B34",
"4  c #06163B",
"5  c #061B3C",
"6  c #0B1D3B",
"7  c #350E2C",
"8  c #34193A",
"9  c #072224",
"0  c #09232C",
"q  c #13292F",
"w  c #0B2233",
"e  c #0C2935",
"r  c #0B243C",
"t  c #0C2B3C",
"y  c #162937",
"u  c #132B3D",
"i  c #12313D",
"p  c #2E2632",
"a  c #4C0630",
"s  c #462D3B",
"d  c #071C43",
"f  c #091C42",
"g  c #071D4B",
"h  c #081E4D",
"j  c #071F53",
"k  c #081F50",
"l  c #3C1759",
"z  c #0B2443",
"x  c #0D2B44",
"c  c #07204A",
"v  c #0A244A",
"b  c #0D2B4B",
"n  c #132C43",
"m  c #172A45",
"M  c #132D4B",
"N  c #0E3245",
"B  c #0E334D",
"V  c #123245",
"C  c #13334C",
"Z  c #1A374B",
"A  c #072052",
"S  c #092255",
"D  c #0E2B53",
"F  c #08235C",
"G  c #0B285A",
"H  c #122D54",
"J  c #122F5A",
"K  c #0F3254",
"L  c #0F3857",
"P  c #0F335B",
"I  c #123353",
"U  c #1D3552",
"Y  c #11335C",
"T  c #123B5C",
"R  c #193958",
"E  c #322F4E",
"W  c #263349",
"Q  c #253B4C",
"!  c #253954",
"~  c #082663",
"^  c #0D2A64",
"/  c #092769",
"(  c #09296C",
")  c #0F3363",
"_  c #123463",
"`  c #133B65",
"'  c #1B3C66",
"]  c #11366B",
"[  c #123B6C",
"{  c #092B73",
"}  c #0A2E7C",
"|  c #133B73",
" . c #193D74",
".. c #143D7B",
"X. c #223E65",
"o. c #343865",
"O. c #470549",
"+. c #5C0449",
"@. c #421349",
"#. c #57065A",
"$. c #4F1258",
"%. c #740B5A",
"&. c #66195C",
"*. c #55275B",
"=. c #4C3252",
"-. c #6E2B56",
";. c #5F0A66",
":. c #4A1566",
">. c #640469",
",. c #68046B",
"<. c #6A1767",
"1. c #771567",
"2. c #790E73",
"3. c #671A77",
"4. c #562A6D",
"5. c #6E2D6C",
"6. c #24414F",
"7. c #29455A",
"8. c #36465B",
"9. c #14426C",
"0. c #1A4368",
"q. c #144375",
"w. c #14437C",
"e. c #1A447B",
"r. c #1B4878",
"t. c #284467",
"y. c #364866",
"u. c #254978",
"i. c #364C76",
"p. c #27537D",
"a. c #3A5272",
"s. c #555D57",
"d. c #4C5170",
"f. c #46547A",
"g. c #61566C",
"h. c #6C7071",
"j. c #8A025D",
"k. c #A70159",
"l. c #850875",
"z. c #950B73",
"x. c #B6066B",
"c. c #AA0576",
"v. c #BB0178",
"b. c #AC1271",
"n. c #8D2C6C",
"m. c #A32166",
"M. c #C8046C",
"N. c #CA0877",
"B. c #D70377",
"V. c #D0147A",
"C. c #E3047B",
"Z. c #C22379",
"A. c #934772",
"S. c #A6427A",
"D. c #143F81",
"F. c #3A3C89",
"G. c #562E84",
"H. c #672383",
"J. c #154383",
"K. c #164985",
"L. c #194C85",
"P. c #15458B",
"I. c #164C8A",
"U. c #1A4C8B",
"Y. c #1B5286",
"T. c #184B95",
"R. c #1B5393",
"E. c #1B539A",
"W. c #1D599A",
"Q. c #2A4D84",
"!. c #2A5689",
"~. c #385585",
"^. c #265597",
"/. c #345B91",
"(. c #28619E",
"). c #194FA1",
"_. c #1A53A5",
"`. c #1E5BA7",
"'. c #1954AC",
"]. c #1D5BB3",
"[. c #1C58B9",
"{. c #275DA2",
"}. c #2D5CB0",
"|. c #1F62BC",
" X c #3967A8",
".X c #3069AF",
"XX c #2467B6",
"oX c #495A85",
"OX c #575D87",
"+X c #4F5993",
"@X c #4A6386",
"#X c #50648B",
"$X c #586D96",
"%X c #5C739B",
"&X c #4869A6",
"*X c #596DA5",
"=X c #5172B1",
"-X c #6377A5",
";X c #637BB4",
":X c #226DCA",
">X c #3276CC",
",X c #4E78C9",
"<X c #637FC6",
"1X c #900C86",
"2X c #980987",
"3X c #AC0084",
"4X c #B60687",
"5X c #B2168C",
"6X c #992C89",
"7X c #AD2A8B",
"8X c #BD2585",
"9X c #B23192",
"0X c #CC0F86",
"qX c #D70281",
"wX c #C61483",
"eX c #EA1689",
"rX c #C72694",
"tX c #D12E90",
"yX c #EB2995",
"uX c #F12A9A",
"iX c #E93497",
"pX c #F8379D",
"aX c #D737A5",
"sX c #8E5787",
"dX c #B14C8C",
"fX c #A0689A",
"gX c #CB5398",
"hX c #E4419C",
"jX c #CD53AB",
"kX c #EC47A9",
"lX c #F352AC",
"zX c #E76EB4",
"xX c #F963B7",
"cX c #FF6CBC",
"vX c #FD72BE",
"bX c #DF61C3",
"nX c #F96CC3",
"mX c #FE74C2",
"MX c #FF7BC6",
"NX c #6981B3",
"BX c #7386BB",
"VX c #5A82D1",
"CX c #7187C2",
"ZX c #9D9F9E",
"AX c #97A49D",
"SX c #859CE2",
"DX c #91A7EE",
"FX c #A4BAFD",
"GX c #FF8BDB",
"HX c #CDAFC5",
"JX c #E7CFDC",
"KX c #F4F6F6",
/* pixels */
"} } } { / ( { { { } } { } { ( { ~ ~ ( { } } { / F ~ A A / { ~ A S S F F S S S g g g d A S F k 5 ",
"F ~ ~ d 2 2 c A F ~ S F ~ A g A d g d S { { F g d A d g F F F S g 5 2 2 2 d d 5 d d A S j g < % ",
"g S d 5 c z d d A A g S A A S S F F g S F F k h S S A g A g A A g S A d d d g g S g d 5 4 d 2 - ",
"$ - < 2 5 2 6 r g 4 < f 2 d d h ( ~ ~ F 4 d d A S S S A d < < < < g S g g d F ( ( S 5 - - : 2 * ",
"4 4 4 5 z b Y | J z v D [ P D ] P.D.[ ) v D D ] [ [ ] ..| J.| _ Y _ J.[ ` b b [ ] [ D b 2 : % * ",
"4 < < d D P.T.T.J...J.J.J.| [ J.R.w.` P D Y ] [ [ J.P.T.).J.J.J.q.| q.[ L x x b B b I n * * & - ",
"S g j / 6 J._._.T.J.K.{.R.Y.Y.q.q.w.` Y ] [ | | ` w.T.T.P.[ | [ [ _ [ 9.T K I x x b b z - % & - ",
"{ ( ( { 3 P.'._.E.Q._  .U.I.w.[ 9.r.9.q._ [ q.K.w.w.J.P.J.| [ P D b Y T 0.Y I I K _ [ Y 6 - o % ",
"} } { { 3 w.].,X^.r.' R ` U.r.| W.U.9.[ H _ w.`.`.w.J.J.U.R.q.b b ' ' Y ' _ Y _ w.' 9.[ S 5 & @ ",
"} } } ( ; | VXFX<XNXr.' [ e.u.I.XX`.U.K.q.r.U.{.{.(.{.E.W.R.U.w.J.U.e.u.e.[ u.Y H I Y K d g < & ",
"/ / { { 6 e.W.;X`..X;X+X!.L.q.L.W.R.p.!.!.=.*.*.4.=..Xu./. X.X=XXX`.W./.L.Y M n M I K K 2 - - % ",
"( { { { ; | K.W._.XX&X/.#X/.Y.Y.Y.!.@Xg.-.n.9X7X7X6X5.5. X.X X(.(..X X~.T b r z K ` ` ` r 2 - - ",
"{ { / ^ 1 Y q.w.K.L.w.` R u.p.!.!.=.sXjXrXiXkXkXkXkXrXjXfXd.oX> . !.u.R u w w r r M I I v d 5 d ",
"{ ~ S A 6 I q.q.q.0.K b C u.p.i.5.b.aXnXcXcXcXcXcXcXcXnXlXb.. X U t.Z M r e y w z r b B z c d g ",
"( S d f v [ U.] _ p.` Y R t.Q.<.b.-.n.A.zXMXmXmXMXMXMXMXlX# O n.=.U Z V x t y r x C B Y S A A g ",
"F g S S z ] ] ) ] e.J.J.X.t.*.c.M.m.+     =.vXvXvXMXMXxXa   a +.E n m C n e u r t V B [ v 2 2 5 ",
"/ ~ ( ^ ; ] J.P.P.T.E.E.U.t.n.B.M.M.tXn.O   O -.vXxXmXn.  A.s   O W m U U M b I x C P ` c 2 : 2 ",
"{ { } { 6 P.'._.'.].}.].`.*.z.B.N.M.N.N.Z.S.8   7 V.kXa . JXs.    . ! ' m b v ' B n x x 2 2 : : ",
"/ ^ ~ F r P q.' w._.'.E.U.3.3XB.B.N.B.k.# 7 dXdX. a C.b.dXKXAXp     t.u.M H J ] ' U D r : 2 : * ",
"/ S ~ ~ 3 P w.' q.e.K.q.9.3.3XB.B.B.k.a . h.HXzXv.rXkXb.<.h.s.+     t.u.U Y H D J U b x : * * * ",
"g d g g z _ P.U.J.e.t.0.t.3.3XB.B.qXa   + ZXKXHX1.aXMXbX1.          7.!.t.u. .J H M z e * 9 * * ",
"g 4 d f 6 _ ..[ _ _ q.' U 3.3XC.B.2X7     + ZXAX# b.xXGXjX7 . . . X i.~.y.t.| H M w w > @ * * * ",
"/ j ~ ^ f D.U.I.P.w.T Z y @.j.C.B.%.#       , q # gXmXMXMXgXn.>.,.#.p p 8 o.J n q * % & o * @ 9 ",
"S F ~ ^ 6 | e..._ ! 8 8 8 p &.4XqXx.a         7 S.hXiXiXiXpXaXaXaXtXz.,.#.l :.:.,.#.& & o * @ * ",
"$ g ( S 1 _ x > = <.<.;.#.&.z.qXN.N.j.# X X a 9XnXeXM.M.M.v.iXlXpXpXpXpXpXpXtX9X6X:.; @ @ * : * ",
"o : F ^ 3 [ Y W :.3.1.l.qXqXqXv.#.,.1X2.&.+.k.uXlXV.N.V.wX2XrXtXyXpXpXpX5XrX8X7X>.:.0 * @ * : 2 ",
"g 4 d g 6 J _ 3.3.N.B.qXN.1.#.:.O.#.,.9XjXwXB.0X1X%.gXnXkX4Xl.l.c.yXpX1.>.;.>.&.>.b x e 1 2 2 6 ",
"{ F g < & z J 4.wX2Xz.1X3.}.i._.o.sXrX0XuX0X3Xl.O.+.gXGXxXb.&.=.&.z.uXiXm.b.x.&.;.v P _ z g 2 - ",
"} } { F 6  .4X5X4X3.3.G.G.XXQ.5.sXlXuXv.j.,.;.$.8 +.rXcXzXn.SXSXf.*.1.iXpXpXZ.&.:.] _ _ g g 2 - ",
"} } } } ; ] 6X5X2.H.].|.2.1.1.5XkX0Xz.,.@.@.p 0.a.*.c.uXgXDXFXDXCX;Xd.>.1.1.4.>.4...! ) f 5 2 2 ",
"{ / { } f _ J.K.4.F.].>X#.c.B.0X2X>.O.@.R N i C !.&X<.4Xb.CX;X%X%XDXCX+X4.>.,.G.~.r.X.b : 2 2 : ",
"~ 2 f ( z | e.B i C 0.u.E -.-.-.*.E E C K B V N Z 7.o.j.N.5.f.$XBXSXBXBX@XoX;XoX~.X.t.D 2 g c d ",
"{ 5 - 5 z J.E.9.Z N I q.r.0.I M u y q 0 b B t t i Z ! =.k.Z.fXg.y.#X$X$Xa.f.%Xf.y.Q M m 1 k ~ k ",
"( g - o @ 3 ] ..| ' I.T.R.9.B r w w 0 > > 0 e i V V i Q *.x.jXsXy.oX-XNX-X$XOXoXa.~.Q.Q._ ( { ( ",
"j ~ S 4 o & 6 Y | _ | _ I Z u r r w = = = > e x u e e i E j.c.5.8.-XBXBXBXf.f.y.f.*XVX>XT.} } { ",
"g ~ { ~ ; J J.E.K._ Y I u w > w w > = = = > : r n u m Q 8.n.1.8.8.$X%X%X$Xy.Q ! y.=XVX>XR.| ( F ",
"{ { } } ; P._.r.0.Y I T K r t e e w e w * = * 3 m m ! y.f.OXd.%X@X@Xd.7.6.Z Q Q y.;XVX X[ G z d ",
"} } } { ; ..T.T B D H C M x K x t b x t w w r M U U U y.8.oXOXOXd.Q W Q 8.f.a.6.y.*X=X!.` v r f ",
"} } ( v ; ] ..[ Y P _ z r b v z x x x t x x b T R u.~.a.a.oXf.o.W y y W f.-X%Xa.y.a.y.t.` D z 5 ",
"} } ~ 1 & | P.D...| | D b b w w b C C V I D b L T 9.!.&X~.y.y.y.f.oXo.W f.*X*XQ Z Z Z 0.` z z d ",
"} } { H z D.[.[.'.'.'.T.J x t w r M x I _ Y B T C 9.R.XX X X&X,X,X,X&Xi.i.~.i.i V R C T b z z c ",
"} } } { 3 ..[.[.'.P...J.J.K x r _ J.J b r e t T q.R.].|.:X:X:X:X>X>Xp.V n R u e N C B K r 6 2 d ",
"} } } { 3 T.[.].)._ D _ P t e x w.| b e 0 0 e ` T 9.K.I.I.I.w.q.I.r.L 0 0 t 0 e N B P _ r 2 2 5 ",
"} } } { ; _ J.P...J z H Y u y n I r > w z B Y | K D P K P J.b z b [ D % 6 z r w x I D J 2 5 S S ",
"} } } } } } } } S $ $ 4 ~ ( g < o X o 4 < d S S S F S S F h < $ < 4 $ o - d k g 5 d d d - g { { ",
"} } } { { } } } ~ - $ g ( { F f f - f F < 4 g 4 g ~ ~ ~ / / ~ S ~ F j $ 4 S ~ F h A A A 4 S { } ",
"} } } } } } } } } / S ( } } { { { { } { { } { { { } } } } } } } } } { ~ S F / { S ~ { { F / } } ",
"} } } } } } } } } } } } } } } } } } } } } } } } } } } } } } } } } } } } { { ( { { { } } } } } } "
};
