/* XPM */
static char *cabb0b8d305c49898623e8eeb83aa75aj0VMR5XHpUwNoeb4[] = {
/* columns rows colors chars-per-pixel */
"48 48 226 2 ",
"   c #020203",
".  c #0B0907",
"X  c #0D0A06",
"o  c #04030B",
"O  c #08030E",
"+  c #040A0D",
"@  c #110D07",
"#  c #120E08",
"$  c #16110A",
"%  c #1B150A",
"&  c #040513",
"*  c #0B0413",
"=  c #050A15",
"-  c #0A0A14",
";  c #020619",
":  c #0D051B",
">  c #050B1B",
",  c #0B091C",
"<  c #130619",
"1  c #13051B",
"2  c #061619",
"3  c #191513",
"4  c #241C0E",
"5  c #271D16",
"6  c #06221D",
"7  c #2A210F",
"8  c #2C2311",
"9  c #352B16",
"0  c #3E3219",
"q  c #040C24",
"w  c #0B0A26",
"e  c #040E2B",
"r  c #130523",
"t  c #1C0523",
"y  c #140B24",
"u  c #1A0925",
"i  c #1B052B",
"p  c #140A2A",
"a  c #1D0A2A",
"s  c #061324",
"d  c #05132D",
"f  c #081728",
"g  c #17162C",
"h  c #050E33",
"j  c #1B0B35",
"k  c #051233",
"l  c #071B33",
"z  c #0A1A34",
"x  c #06143B",
"c  c #091739",
"v  c #091C3A",
"b  c #171A35",
"n  c #22072B",
"m  c #24052C",
"M  c #2B0633",
"N  c #260B32",
"B  c #2A0936",
"V  c #34073B",
"C  c #36073D",
"Z  c #34083D",
"A  c #24193E",
"S  c #082A25",
"D  c #073026",
"F  c #083127",
"G  c #083429",
"H  c #093C2E",
"J  c #0A2738",
"K  c #0B3B35",
"L  c #20293D",
"P  c #42341B",
"I  c #4C3E24",
"U  c #503F21",
"Y  c #0B4435",
"T  c #0C433A",
"R  c #0C4C3A",
"E  c #0C523E",
"W  c #574627",
"Q  c #544331",
"!  c #64502D",
"~  c #685532",
"^  c #735B34",
"/  c #785F35",
"(  c #7C6138",
")  c #051543",
"_  c #071A46",
"`  c #071C4B",
"'  c #171149",
"]  c #061C53",
"[  c #081A54",
"{  c #1D1553",
"}  c #270B47",
"|  c #3A0943",
" . c #3A0B47",
".. c #2F134F",
"X. c #0B2344",
"o. c #0B234B",
"O. c #0D2B4A",
"+. c #172644",
"@. c #11374F",
"#. c #072056",
"$. c #092454",
"%. c #0E2B54",
"&. c #09235B",
"*. c #0E2D5A",
"=. c #0F3157",
"-. c #262B4B",
";. c #2D2A56",
":. c #2A3556",
">. c #271C60",
",. c #092664",
"<. c #0C2B64",
"1. c #0A276A",
"2. c #0B2B6B",
"3. c #0F3267",
"4. c #12376B",
"5. c #092B73",
"6. c #0A2E7C",
"7. c #163277",
"8. c #123C78",
"9. c #2E316D",
"0. c #46084B",
"q. c #440A4C",
"w. c #440D56",
"e. c #4C0A54",
"r. c #4D0B59",
"t. c #55095B",
"y. c #540A5B",
"u. c #471558",
"i. c #42215F",
"p. c #5C0B63",
"a. c #580E67",
"s. c #4A1460",
"d. c #541266",
"f. c #561469",
"g. c #5A1673",
"h. c #610B66",
"j. c #640C6B",
"k. c #6B0B6E",
"l. c #670E73",
"z. c #6D0C72",
"x. c #730C74",
"c. c #760D79",
"v. c #7A0C7A",
"b. c #671677",
"n. c #6F1179",
"m. c #4A2A71",
"M. c #5D247D",
"N. c #64237E",
"B. c #0D4B45",
"V. c #0D5442",
"C. c #0D5B44",
"Z. c #0D5549",
"A. c #135254",
"S. c #32445C",
"D. c #0E6247",
"F. c #0F644C",
"G. c #116D4E",
"H. c #136956",
"J. c #0F7053",
"K. c #137654",
"L. c #17447B",
"P. c #374668",
"I. c #2A4C72",
"U. c #137365",
"Y. c #685D47",
"T. c #445279",
"R. c #84693C",
"E. c #87683C",
"W. c #810C7D",
"Q. c #8C6C41",
"!. c #8E7546",
"~. c #967644",
"^. c #997644",
"/. c #9C7946",
"(. c #A27D49",
"). c #17845C",
"_. c #178766",
"`. c #1C9769",
"'. c #1D9B73",
"]. c #1EA575",
"[. c #22A66F",
"{. c #22A773",
"}. c #23AB73",
"|. c #28B678",
" X c #2CC47E",
".X c #A6804B",
"XX c #AC854D",
"oX c #B68C52",
"OX c #BC9156",
"+X c #C79759",
"@X c #D39E5D",
"#X c #D4A05F",
"$X c #DAA260",
"%X c #E5A965",
"&X c #EEAC67",
"*X c #F5AE69",
"=X c #163F85",
"-X c #6C1783",
";X c #781584",
":X c #6F2A8E",
">X c #164788",
",X c #184C98",
"<X c #1A529A",
"1X c #2E5393",
"2X c #1A54A3",
"3X c #1E5FA2",
"4X c #1D5DB4",
"5X c #2F5FA4",
"6X c #2D65B0",
"7X c #4B5D92",
"8X c #556B94",
"9X c #7845AF",
"0X c #4D6FB1",
"qX c #6978B0",
"wX c #4B7ACC",
"eX c #8F108D",
"rX c #A90D99",
"tX c #AC18B3",
"yX c #C612B1",
"uX c #1FA086",
"iX c #2EC884",
"pX c #30CC83",
"aX c #32D485",
"sX c #34D986",
"dX c #6589D6",
"fX c #94AFFE",
/* pixels */
"6.6.6.5.1.1.&.<.4.3.3.4.2.1.<.,.` k k k ) ` ] ,.,.,.#.o.e - ~.9 W i & ~ ! ! I ! ^ ( W U o &.#.v ",
"&.,.,._ v *.*.%.$.$.` *.8.4.4.X.= o               o.$.8.v # *X% P Q.W R.P !.+X/.~.X ~.%   x = = ",
"` #._ _ z =     o o   > ) $.4.,X2X8.$.` o W (.W   > 3.8.v @ &X% P oXR.@X8 ~.( 7 X 4 +XX o =     ",
"e d c 3.3.v J J ` x x ) ) _ <X<X2X] ,.`   0 ~ ( 8   q %.o.@ *X9 # #XoX*X9 ^ $ % W %X^   o l c f ",
"x k o.8.%.O.=.8.*.X.' ' ' j >.9.,X,.8.*.=   ~ R.XX3 3 4Xo.@ *X^ @ ^ %X*X! 7 @ XX(.oX8 # = l s f ",
"x o o o o > 4.>X{ : r * o   o   o O j v X.o Q Y.R.I   <Xv @ *XR.X 5 @X&X/.X 8 *XR.+X%   + s s l ",
"#.) *.>X,X<X7.p o o B * : * * 1 * o o   & v - W U OX    o X *X.XR.# / *X@X  U *X( &X. o         ",
"5.` $.>X>X7.B   o a B C r.V   y.M.;.1 o o f s   ( OX# @ q . *X/.XX9 8 *X*X  W *X^./.  = s s > s ",
"6._ 2.3.4.>.: * u 1 1 * 1 V   eXW.j.* u *   >Xo $ &X^ # ; $ *XOXR./ @ *X@X  ! *X^.W o o 2X4X%.2 ",
"6.z 5.#.X.=X& 1 Z q.q.r.o o o B rXeXo i.* o *.4.o &X$X9 ; 4 *XQ.( OXW *X(   R.@XXX5 o o <X4.3.L.",
"k q >   > ,X& t f.d.eXrXe.o O 1 g.rX* ;Xg o , 5Xz XX*XU = 7 &X.X( +X&X&X!   R.oX^.-   & v f d z ",
"&.k x [ #.[ * 1 y.y.rX-Xy.1 o O r. .* k. .o o [ d !.*X/ . 9 &X~.R.OX# ( 0 . ^.OXR.. & [ ) ) x k ",
"1.q e x ) & o     o     1 q.B   y.| O y.u.  * ) & /.&X+X  P *X/ XX$ . R.7 $ (.^ 4   O.` h q & o ",
"5.,.#.` ` o o n V  .| 1 t * e.  s.V * y.b.  : :.$ OX@X$XX P *X+X4   ^.0 W @X/.9     s >       o ",
"; e h x o.& o t u.9Xa.Z 1 * r.  y.M O h.-Xo : -.0 %XXXXXW R.*X4   R.U 9 $XoX3 o = L.o X.$.#.) ) ",
"#.` #.&.o.d o O  .r.d.e.o * q.  y.n O W.d.o : g ~ /.^ R.*X%X^   R.$XW @X@X$ o J J <XO.f o.d s q ",
"1.,.1.5.f 4.= o r r r c.O O Z o y.1 1 eXw.O o   #X^.4 U &X+X9 R.*X/.$XQ.    X.=.O.> = o       o ",
"5.5.6.6.v >X%.v <.*.o j.B O m o y.* a eX .o     *X#   ^.*XQ.P *X*X(.Q     = o.4.@.L.L.X.l l l l ",
"1.,.,.#.f f v =.>X2X> j.j.O t O e.q.r.rXa       3   . *X*X@ 7 ^.( : o   o > > > z 4.4XO.l l l O.",
"1.#.&.& & r r O %.>X> j.z.o 1 1 | C t yXo         o @ *X*X  ~ R.5 1 2 +.o = > > X.%.X.= o   = ;.",
"` d   o r | o 1 o z s j.p.o 1 u V | m yX        x o . *X/.  +XoX1 * I.3X>X>X8.%.=     + 2 S o , ",
"d o m g.N r.a z. .  z k.B o t p V | m tX    w j ,.; o *XW   #XXX* , I.6X<X>Xf   = T 2 H.F.T o B.",
"  O x.y.c.g.y a.k.o y k.1 * t r Z C m tX1 o 9.{ { X.  @X! @ $X^ O o +.1XL.4.  f G.K.R _.G D + R ",
"   .j.t d.1  .v.p.m 1 k.o t t 1 q.Z a v.t o 9.} ' 0Xo   W # OX9   o = o s X.  T [.'.+ `.|.A.2 B.",
"  y.p.M j.t Z eXz.0.m y.o M t O y.C a p.N o 9.} { fXP.  X @ ^.4   %.3XL.J > S Y '.}.2 _.pXK 6 T ",
"  a y.Z j.1 A eXc.y.O B   q.m * y.C t y.g o [ { ' ` )     . R.  o ] [ [ [ & K V.[.'.+ H._.@.G D ",
"* * p. .x.* a :X;Xe.O N o y.q.V y.V t :X, o h o     o o   $     :.wX0X1X4.c S @.aXF.  H.G.f K D ",
"& o a.y.x.o m l.v. .O u * y.h.y.y.V t M.* O &.#.` %.c r   X   9.,XL.>XL.:.= 2 C.pX= o `.).= A.D ",
"x * .. .c.* n a.v. .: : t p.x.j.y.V t a.1 o &.[ <.7X7X} - o 1XwX:.- o o o o C.G.uX  S aXpXo I.G ",
"5.O r.V -X* r p.v.i , o | y.x.z.a.V a y.1 O ) , j r A - b +.fXfXdXqX7XP.s V.V.}.@.  U.aX_.  uXK ",
"5.: & q } 1 t h.v.* , o y.y.z.c.l.C u y.*   * o * o g & 9.  -.0XwXdX5X= K K |.uX=   [.Y 2 B.[.T ",
",.: * q , 1 r.y.x.: & * y.j.x.x.h.V t y.1 o Z o N O f.  m.* o 1XI.:.-.L K '.pXI.  F.F.`.  [.iXY ",
"5.w r = - 1 d.y.x.p o u j.x.x.z.h.M m a.1 O B o Z O a.o | n   ;.g :.g g E iXiXT + [.H _.H |.`.G ",
"1.q i   o n y.a.x.a : p.-Xx.z.z.p.m M y.t O e.1  .y.w.o  .r.  ;.P.S.+ 2 V.sXiX2 '.[.].A.[.|.V.D ",
"] x i o   | y.y.m j r f.n.c.z.x.y.1 | y.t O y.1 | d.y.o e.l.  -.S.T.O S C.sXH.Y aXF.`.J pX`.G K.",
"` #.r     | y.y.N a p d.x.x.k.k.y.* 0.y.t * r.e.r.f.y.o y.b.  S.S.P.o J D.|.+  XsXaXU.6 {.D G S ",
"5.5.r     1 q.y.n u j n.x.x.x.p.r.* y.w.B 1 r.y.d.m.u.q.h.u.p 8X7X-.o T G.T _.aXaXA.S ).G F S   ",
",.` r r   y n y.t , d.v.c.x.h.y. .1 y.r.r.e.a.M.:XN.b.n.n.a z k q q o B.G.H. XsXpXV.C.G Y G   - ",
"o e h p   g u y.* M l.j.v.p.r.| n t y.y.y.N.:Xg.b.l.z.j.i : z s = -   T H.}.[.aXsXC.S C.K +   I.",
"6.6.x i   * y y.e.k.j.c.z.y.y.n 1 Z y.a.b.M.f.p.i * n 1 y 9.P.P.T.:.o T G.`.J. XG.G G G.S   A.E ",
"6.6.] : & o g y.h.k.x.c.a.y.y.1 * e.y.b.9Xl.p.t   o =.6X6X5X0XwXwXI.- T C.`.|.H S G V.G F s K.Y ",
"e ] 6.x *   y a.c.h.x.x.p.y.y.* 1 y.y.b.eXm *   f >X,X,X2X2X2X2X2X*.o V.C.K.[. XR F R F.  U.F E ",
"e ,.6.> 1 o - ;Xx.x.x.k.y.y.y.O O | j.;X..    w ] #.&.) = & o o q o.o K C.).R sX).D R + G Y G `.",
"6.6.1.h i   o ;Xx.z.x.p.y.r.y.O   q.j.r.& o o { 3.%.X.> s v z X.%.%.o L E `.}.pX_.D B.s G Y ).].",
"6.) x e i   o ;Xx.k.x.c.j.p. .  O q.k.m O   * [ #.&.#.#.&.` k q k e   b G |.F.K.C.E D.G H H D Z.",
"6.6.6.) j o   c.v.h.k.x.c.c.|   B x.j.p   O } x ] ,.,.,.1.1.,.#.,.k   b E }.J.R ).R G G F D C._.",
"> d x e j o   x.x.f.x.x.c.c.t   1.j.a.o : 1.5.5.; q d k k e & 6.6.q o S {.|.}.E H S H E G.}.{.[.",
",.` x e & o   r.y.r.w.e.y.y.y j ..| * x q q ; o = = & & & & d 6.6.& 2 6 F.C.G D.J.).K.Y ).J.`.Z."
};
